G04 #@! TF.FileFunction,Paste,Top*
%FSLAX46Y46*%
G04 Gerber Fmt 4.6, Leading zero omitted, Abs format (unit mm)*
G04 Created by KiCad (PCBNEW 4.0.1-3.201512150931+6195~38~ubuntu15.04.1-stable) date Sun 01 May 2016 04:30:14 AM CDT*
%MOMM*%
G01*
G04 APERTURE LIST*
%ADD10C,0.100000*%
%ADD11R,0.600000X1.500000*%
%ADD12R,0.500000X0.900000*%
%ADD13R,0.800000X0.750000*%
%ADD14R,0.750000X0.800000*%
%ADD15R,2.430000X2.370000*%
%ADD16R,1.600000X1.000000*%
%ADD17R,1.200000X0.750000*%
%ADD18R,1.200000X0.900000*%
%ADD19R,0.850000X0.300000*%
%ADD20R,0.300000X0.850000*%
%ADD21R,1.102500X1.102500*%
%ADD22R,2.032000X3.657600*%
%ADD23R,2.032000X1.016000*%
%ADD24R,0.762000X0.431800*%
G04 APERTURE END LIST*
D10*
D11*
X60579000Y-102456000D03*
X59309000Y-102456000D03*
X58039000Y-102456000D03*
X56769000Y-102456000D03*
X55499000Y-102456000D03*
X54229000Y-102456000D03*
X52959000Y-102456000D03*
X52959000Y-107856000D03*
X54229000Y-107856000D03*
X55499000Y-107856000D03*
X56769000Y-107856000D03*
X58039000Y-107856000D03*
X59309000Y-107856000D03*
X60579000Y-107856000D03*
D12*
X54344000Y-110363000D03*
X52844000Y-110363000D03*
D13*
X98373500Y-89344500D03*
X99873500Y-89344500D03*
D14*
X92773500Y-82284000D03*
X92773500Y-80784000D03*
D15*
X87566500Y-74794500D03*
X87566500Y-81034500D03*
D14*
X88328500Y-95389000D03*
X88328500Y-96889000D03*
D16*
X130937000Y-95274000D03*
X130937000Y-98274000D03*
D14*
X130937000Y-102477000D03*
X130937000Y-100977000D03*
D17*
X64963000Y-66929000D03*
X66863000Y-66929000D03*
X64963000Y-73787000D03*
X66863000Y-73787000D03*
X64963000Y-78867000D03*
X66863000Y-78867000D03*
X72329000Y-80645000D03*
X74229000Y-80645000D03*
X72329000Y-85217000D03*
X74229000Y-85217000D03*
X78171000Y-85217000D03*
X80071000Y-85217000D03*
X77282000Y-92075000D03*
X79182000Y-92075000D03*
X72837000Y-95377000D03*
X74737000Y-95377000D03*
X55819000Y-137668000D03*
X57719000Y-137668000D03*
X51501000Y-135382000D03*
X53401000Y-135382000D03*
X55819000Y-134366000D03*
X57719000Y-134366000D03*
X51501000Y-133096000D03*
X53401000Y-133096000D03*
X72583000Y-99949000D03*
X74483000Y-99949000D03*
X64963000Y-101727000D03*
X66863000Y-101727000D03*
X64963000Y-108585000D03*
X66863000Y-108585000D03*
X72583000Y-109982000D03*
X74483000Y-109982000D03*
X79187000Y-112903000D03*
X81087000Y-112903000D03*
X74488000Y-117348000D03*
X76388000Y-117348000D03*
X74488000Y-119634000D03*
X76388000Y-119634000D03*
X77658000Y-127190500D03*
X75758000Y-127190500D03*
X55819000Y-132080000D03*
X57719000Y-132080000D03*
X51501000Y-130810000D03*
X53401000Y-130810000D03*
X55819000Y-129794000D03*
X57719000Y-129794000D03*
X51501000Y-128524000D03*
X53401000Y-128524000D03*
X55819000Y-127508000D03*
X57719000Y-127508000D03*
X51501000Y-126238000D03*
X53401000Y-126238000D03*
X55819000Y-125222000D03*
X57719000Y-125222000D03*
X51501000Y-123952000D03*
X53401000Y-123952000D03*
D11*
X60579000Y-72992000D03*
X59309000Y-72992000D03*
X58039000Y-72992000D03*
X56769000Y-72992000D03*
X55499000Y-72992000D03*
X54229000Y-72992000D03*
X52959000Y-72992000D03*
X52959000Y-78392000D03*
X54229000Y-78392000D03*
X55499000Y-78392000D03*
X56769000Y-78392000D03*
X58039000Y-78392000D03*
X59309000Y-78392000D03*
X60579000Y-78392000D03*
X69850000Y-87851000D03*
X68580000Y-87851000D03*
X67310000Y-87851000D03*
X66040000Y-87851000D03*
X64770000Y-87851000D03*
X63500000Y-87851000D03*
X62230000Y-87851000D03*
X62230000Y-93251000D03*
X63500000Y-93251000D03*
X64770000Y-93251000D03*
X66040000Y-93251000D03*
X67310000Y-93251000D03*
X68580000Y-93251000D03*
X69850000Y-93251000D03*
X87566500Y-143098500D03*
X88836500Y-143098500D03*
X90106500Y-143098500D03*
X91376500Y-143098500D03*
X92646500Y-143098500D03*
X93916500Y-143098500D03*
X95186500Y-143098500D03*
X95186500Y-137698500D03*
X93916500Y-137698500D03*
X92646500Y-137698500D03*
X91376500Y-137698500D03*
X90106500Y-137698500D03*
X88836500Y-137698500D03*
X87566500Y-137698500D03*
X69850000Y-117061000D03*
X68580000Y-117061000D03*
X67310000Y-117061000D03*
X66040000Y-117061000D03*
X64770000Y-117061000D03*
X63500000Y-117061000D03*
X62230000Y-117061000D03*
X62230000Y-122461000D03*
X63500000Y-122461000D03*
X64770000Y-122461000D03*
X66040000Y-122461000D03*
X67310000Y-122461000D03*
X68580000Y-122461000D03*
X69850000Y-122461000D03*
X99568000Y-130335000D03*
X100838000Y-130335000D03*
X102108000Y-130335000D03*
X103378000Y-130335000D03*
X104648000Y-130335000D03*
X105918000Y-130335000D03*
X107188000Y-130335000D03*
X107188000Y-124935000D03*
X105918000Y-124935000D03*
X104648000Y-124935000D03*
X103378000Y-124935000D03*
X102108000Y-124935000D03*
X100838000Y-124935000D03*
X99568000Y-124935000D03*
X111061500Y-117444500D03*
X112331500Y-117444500D03*
X113601500Y-117444500D03*
X114871500Y-117444500D03*
X116141500Y-117444500D03*
X117411500Y-117444500D03*
X118681500Y-117444500D03*
X118681500Y-112044500D03*
X117411500Y-112044500D03*
X116141500Y-112044500D03*
X114871500Y-112044500D03*
X113601500Y-112044500D03*
X112331500Y-112044500D03*
X111061500Y-112044500D03*
D18*
X64813000Y-71501000D03*
X67013000Y-71501000D03*
X64813000Y-76581000D03*
X67013000Y-76581000D03*
X72179000Y-78359000D03*
X74379000Y-78359000D03*
X64813000Y-69215000D03*
X67013000Y-69215000D03*
X78021000Y-87503000D03*
X80221000Y-87503000D03*
X77132000Y-89789000D03*
X79332000Y-89789000D03*
X72687000Y-93091000D03*
X74887000Y-93091000D03*
X72179000Y-82931000D03*
X74379000Y-82931000D03*
X64813000Y-104013000D03*
X67013000Y-104013000D03*
X64813000Y-106299000D03*
X67013000Y-106299000D03*
X72433000Y-107696000D03*
X74633000Y-107696000D03*
X72433000Y-102235000D03*
X74633000Y-102235000D03*
X74338000Y-115062000D03*
X76538000Y-115062000D03*
X74338000Y-121920000D03*
X76538000Y-121920000D03*
X77640000Y-124841000D03*
X79840000Y-124841000D03*
X79037000Y-110617000D03*
X81237000Y-110617000D03*
D19*
X96271000Y-92586500D03*
X96271000Y-92086500D03*
X96271000Y-91586500D03*
X96271000Y-91086500D03*
X96271000Y-90586500D03*
X96271000Y-90086500D03*
X96271000Y-89586500D03*
X96271000Y-89086500D03*
X96271000Y-88586500D03*
X96271000Y-88086500D03*
X96271000Y-87586500D03*
X96271000Y-87086500D03*
X96271000Y-86586500D03*
X96271000Y-86086500D03*
X96271000Y-85586500D03*
X96271000Y-85086500D03*
D20*
X95571000Y-84386500D03*
X95071000Y-84386500D03*
X94571000Y-84386500D03*
X94071000Y-84386500D03*
X93571000Y-84386500D03*
X93071000Y-84386500D03*
X92571000Y-84386500D03*
X92071000Y-84386500D03*
X91571000Y-84386500D03*
X91071000Y-84386500D03*
X90571000Y-84386500D03*
X90071000Y-84386500D03*
X89571000Y-84386500D03*
X89071000Y-84386500D03*
X88571000Y-84386500D03*
X88071000Y-84386500D03*
D19*
X87371000Y-85086500D03*
X87371000Y-85586500D03*
X87371000Y-86086500D03*
X87371000Y-86586500D03*
X87371000Y-87086500D03*
X87371000Y-87586500D03*
X87371000Y-88086500D03*
X87371000Y-88586500D03*
X87371000Y-89086500D03*
X87371000Y-89586500D03*
X87371000Y-90086500D03*
X87371000Y-90586500D03*
X87371000Y-91086500D03*
X87371000Y-91586500D03*
X87371000Y-92086500D03*
X87371000Y-92586500D03*
D20*
X88071000Y-93286500D03*
X88571000Y-93286500D03*
X89071000Y-93286500D03*
X89571000Y-93286500D03*
X90071000Y-93286500D03*
X90571000Y-93286500D03*
X91071000Y-93286500D03*
X91571000Y-93286500D03*
X92071000Y-93286500D03*
X92571000Y-93286500D03*
X93071000Y-93286500D03*
X93571000Y-93286500D03*
X94071000Y-93286500D03*
X94571000Y-93286500D03*
X95071000Y-93286500D03*
X95571000Y-93286500D03*
D21*
X89064750Y-86080250D03*
X89064750Y-87917750D03*
X89064750Y-89755250D03*
X89064750Y-91592750D03*
X90902250Y-86080250D03*
X90902250Y-87917750D03*
X90902250Y-89755250D03*
X90902250Y-91592750D03*
X92739750Y-86080250D03*
X92739750Y-87917750D03*
X92739750Y-89755250D03*
X92739750Y-91592750D03*
X94577250Y-86080250D03*
X94577250Y-87917750D03*
X94577250Y-89755250D03*
X94577250Y-91592750D03*
D22*
X140843000Y-100584000D03*
D23*
X134239000Y-100584000D03*
X134239000Y-102870000D03*
X134239000Y-98298000D03*
D24*
X48006000Y-75547220D03*
X49530000Y-75547220D03*
X48006000Y-76344780D03*
X49530000Y-76344780D03*
X48006000Y-74747120D03*
X48006000Y-77144880D03*
X49530000Y-77144880D03*
X49530000Y-74747120D03*
X48006000Y-77944980D03*
X48006000Y-78745080D03*
X48006000Y-73146920D03*
X48006000Y-73947020D03*
X49530000Y-73947020D03*
X49530000Y-73146920D03*
X49530000Y-78745080D03*
X49530000Y-77944980D03*
X57404000Y-90152220D03*
X58928000Y-90152220D03*
X57404000Y-90949780D03*
X58928000Y-90949780D03*
X57404000Y-89352120D03*
X57404000Y-91749880D03*
X58928000Y-91749880D03*
X58928000Y-89352120D03*
X57404000Y-92549980D03*
X57404000Y-93350080D03*
X57404000Y-87751920D03*
X57404000Y-88552020D03*
X58928000Y-88552020D03*
X58928000Y-87751920D03*
X58928000Y-93350080D03*
X58928000Y-92549980D03*
X48006000Y-104757220D03*
X49530000Y-104757220D03*
X48006000Y-105554780D03*
X49530000Y-105554780D03*
X48006000Y-103957120D03*
X48006000Y-106354880D03*
X49530000Y-106354880D03*
X49530000Y-103957120D03*
X48006000Y-107154980D03*
X48006000Y-107955080D03*
X48006000Y-102356920D03*
X48006000Y-103157020D03*
X49530000Y-103157020D03*
X49530000Y-102356920D03*
X49530000Y-107955080D03*
X49530000Y-107154980D03*
X57404000Y-119362220D03*
X58928000Y-119362220D03*
X57404000Y-120159780D03*
X58928000Y-120159780D03*
X57404000Y-118562120D03*
X57404000Y-120959880D03*
X58928000Y-120959880D03*
X58928000Y-118562120D03*
X57404000Y-121759980D03*
X57404000Y-122560080D03*
X57404000Y-116961920D03*
X57404000Y-117762020D03*
X58928000Y-117762020D03*
X58928000Y-116961920D03*
X58928000Y-122560080D03*
X58928000Y-121759980D03*
D12*
X54344000Y-68199000D03*
X52844000Y-68199000D03*
X59194000Y-68199000D03*
X60694000Y-68199000D03*
X59194000Y-83185000D03*
X60694000Y-83185000D03*
X54344000Y-83185000D03*
X52844000Y-83185000D03*
X54344000Y-70485000D03*
X52844000Y-70485000D03*
X59194000Y-70485000D03*
X60694000Y-70485000D03*
X59194000Y-80899000D03*
X60694000Y-80899000D03*
X54344000Y-80899000D03*
X52844000Y-80899000D03*
X63615000Y-83058000D03*
X62115000Y-83058000D03*
X68465000Y-83058000D03*
X69965000Y-83058000D03*
X68465000Y-98044000D03*
X69965000Y-98044000D03*
X63615000Y-98044000D03*
X62115000Y-98044000D03*
X63615000Y-85344000D03*
X62115000Y-85344000D03*
X68465000Y-85344000D03*
X69965000Y-85344000D03*
X68465000Y-95758000D03*
X69965000Y-95758000D03*
X63615000Y-95758000D03*
X62115000Y-95758000D03*
X54344000Y-97663000D03*
X52844000Y-97663000D03*
X59194000Y-97663000D03*
X60694000Y-97663000D03*
X59194000Y-112649000D03*
X60694000Y-112649000D03*
X54344000Y-112649000D03*
X52844000Y-112649000D03*
X54344000Y-99949000D03*
X52844000Y-99949000D03*
X59194000Y-99949000D03*
X60694000Y-99949000D03*
X59194000Y-110363000D03*
X60694000Y-110363000D03*
X63678500Y-112268000D03*
X62178500Y-112268000D03*
X68465000Y-112268000D03*
X69965000Y-112268000D03*
X68465000Y-127254000D03*
X69965000Y-127254000D03*
X63615000Y-127190500D03*
X62115000Y-127190500D03*
X63678500Y-114554000D03*
X62178500Y-114554000D03*
X68465000Y-114554000D03*
X69965000Y-114554000D03*
X68465000Y-124968000D03*
X69965000Y-124968000D03*
X63615000Y-124968000D03*
X62115000Y-124968000D03*
D14*
X56769000Y-69076000D03*
X56769000Y-67576000D03*
X56769000Y-83681000D03*
X56769000Y-82181000D03*
X66040000Y-83935000D03*
X66040000Y-82435000D03*
X66040000Y-98413000D03*
X66040000Y-96913000D03*
X91376500Y-146570000D03*
X91376500Y-148070000D03*
X91376500Y-132790500D03*
X91376500Y-134290500D03*
X56769000Y-98921000D03*
X56769000Y-97421000D03*
X56769000Y-113018000D03*
X56769000Y-111518000D03*
X66040000Y-113526000D03*
X66040000Y-112026000D03*
X66040000Y-127496000D03*
X66040000Y-125996000D03*
X103378000Y-133997000D03*
X103378000Y-135497000D03*
X103378000Y-120154000D03*
X103378000Y-121654000D03*
X114871500Y-120725500D03*
X114871500Y-122225500D03*
X114871500Y-107136500D03*
X114871500Y-108636500D03*
D12*
X87451500Y-147828000D03*
X88951500Y-147828000D03*
X95301500Y-147828000D03*
X93801500Y-147828000D03*
X87388000Y-132842000D03*
X88888000Y-132842000D03*
X88951500Y-145542000D03*
X87451500Y-145542000D03*
X93801500Y-145542000D03*
X95301500Y-145542000D03*
X88951500Y-135191500D03*
X87451500Y-135191500D03*
X99453000Y-135128000D03*
X100953000Y-135128000D03*
X107303000Y-135128000D03*
X105803000Y-135128000D03*
X99453000Y-120142000D03*
X100953000Y-120142000D03*
X100953000Y-132842000D03*
X99453000Y-132842000D03*
X105803000Y-132842000D03*
X107303000Y-132842000D03*
X100953000Y-122428000D03*
X99453000Y-122428000D03*
X110946500Y-122174000D03*
X112446500Y-122174000D03*
X118796500Y-122237500D03*
X117296500Y-122237500D03*
X110946500Y-107188000D03*
X112446500Y-107188000D03*
X112446500Y-119888000D03*
X110946500Y-119888000D03*
X117296500Y-119951500D03*
X118796500Y-119951500D03*
X112446500Y-109537500D03*
X110946500Y-109537500D03*
X95365000Y-132905500D03*
X93865000Y-132905500D03*
X93865000Y-135191500D03*
X95365000Y-135191500D03*
X107303000Y-120142000D03*
X105803000Y-120142000D03*
X105803000Y-122428000D03*
X107303000Y-122428000D03*
X118796500Y-107188000D03*
X117296500Y-107188000D03*
X117296500Y-109537500D03*
X118796500Y-109537500D03*
D24*
X48006000Y-134129780D03*
X46482000Y-134129780D03*
X48006000Y-133332220D03*
X46482000Y-133332220D03*
X48006000Y-134929880D03*
X48006000Y-132532120D03*
X46482000Y-132532120D03*
X46482000Y-134929880D03*
X48006000Y-129811780D03*
X46482000Y-129811780D03*
X48006000Y-129014220D03*
X46482000Y-129014220D03*
X48006000Y-130611880D03*
X48006000Y-128214120D03*
X46482000Y-128214120D03*
X46482000Y-130611880D03*
X48006000Y-125620780D03*
X46482000Y-125620780D03*
X48006000Y-124823220D03*
X46482000Y-124823220D03*
X48006000Y-126420880D03*
X48006000Y-124023120D03*
X46482000Y-124023120D03*
X46482000Y-126420880D03*
D14*
X91249500Y-95389000D03*
X91249500Y-96889000D03*
M02*
