G04 #@! TF.FileFunction,Paste,Top*
%FSLAX46Y46*%
G04 Gerber Fmt 4.6, Leading zero omitted, Abs format (unit mm)*
G04 Created by KiCad (PCBNEW 4.0.6-e0-6349~53~ubuntu16.04.1) date Sun Mar 26 23:02:30 2017*
%MOMM*%
%LPD*%
G01*
G04 APERTURE LIST*
%ADD10C,0.100000*%
%ADD11R,2.430000X2.370000*%
%ADD12R,0.600000X0.700000*%
%ADD13R,0.500000X0.900000*%
%ADD14R,1.143000X0.508000*%
%ADD15R,2.000000X3.800000*%
%ADD16R,2.000000X1.500000*%
%ADD17R,1.500000X0.600000*%
%ADD18R,0.800000X0.750000*%
%ADD19R,2.032000X1.524000*%
%ADD20R,1.200000X0.900000*%
%ADD21R,0.900000X0.500000*%
%ADD22R,1.200000X0.750000*%
%ADD23R,0.750000X0.800000*%
%ADD24R,0.760000X0.430000*%
%ADD25R,1.600000X1.000000*%
%ADD26R,0.850000X0.300000*%
%ADD27R,0.300000X0.850000*%
%ADD28R,1.102500X1.102500*%
%ADD29R,0.600000X1.500000*%
G04 APERTURE END LIST*
D10*
D11*
X87566500Y-74794500D03*
X87566500Y-81034500D03*
D12*
X123550000Y-73250000D03*
X124950000Y-73250000D03*
X127200000Y-66500000D03*
X128600000Y-66500000D03*
D13*
X50650000Y-67600000D03*
X52150000Y-67600000D03*
X50650000Y-64700000D03*
X52150000Y-64700000D03*
X85750000Y-64800000D03*
X87250000Y-64800000D03*
X85750000Y-67600000D03*
X87250000Y-67600000D03*
X82550000Y-67600000D03*
X81050000Y-67600000D03*
X82550000Y-64700000D03*
X81050000Y-64700000D03*
X67150000Y-67600000D03*
X65650000Y-67600000D03*
X67150000Y-64700000D03*
X65650000Y-64700000D03*
X60850000Y-67600000D03*
X62350000Y-67600000D03*
X60850000Y-64700000D03*
X62350000Y-64700000D03*
X75750000Y-64700000D03*
X77250000Y-64700000D03*
X75750000Y-67600000D03*
X77250000Y-67600000D03*
X72350000Y-64700000D03*
X70850000Y-64700000D03*
X72350000Y-67600000D03*
X70850000Y-67600000D03*
X57250000Y-64700000D03*
X55750000Y-64700000D03*
X57250000Y-67600000D03*
X55750000Y-67600000D03*
D14*
X104374999Y-67300000D03*
X104374999Y-69840000D03*
X104374999Y-71110000D03*
X104374999Y-72380000D03*
X104374999Y-73650000D03*
X104374999Y-74920000D03*
X104374999Y-76190000D03*
X98024999Y-76190000D03*
X98024999Y-74920000D03*
X98024999Y-73650000D03*
X98024999Y-72380000D03*
X98024999Y-71110000D03*
X98024999Y-69840000D03*
X98024999Y-68570000D03*
X98024999Y-67300000D03*
X104374999Y-68570000D03*
X114225000Y-67305000D03*
X114225000Y-69845000D03*
X114225000Y-71115000D03*
X114225000Y-72385000D03*
X114225000Y-73655000D03*
X114225000Y-74925000D03*
X114225000Y-76195000D03*
X107875000Y-76195000D03*
X107875000Y-74925000D03*
X107875000Y-73655000D03*
X107875000Y-72385000D03*
X107875000Y-71115000D03*
X107875000Y-69845000D03*
X107875000Y-68575000D03*
X107875000Y-67305000D03*
X114225000Y-68575000D03*
D15*
X139150000Y-67100000D03*
D16*
X132850000Y-67100000D03*
X132850000Y-69400000D03*
X132850000Y-64800000D03*
D17*
X130700000Y-73290000D03*
X130700000Y-74560000D03*
X130700000Y-75830000D03*
X130700000Y-77100000D03*
X130700000Y-78370000D03*
X130700000Y-79640000D03*
X130700000Y-80910000D03*
X136100000Y-80910000D03*
X136100000Y-79640000D03*
X136100000Y-78370000D03*
X136100000Y-77100000D03*
X136100000Y-75830000D03*
X136100000Y-74560000D03*
X136100000Y-73290000D03*
D18*
X98350000Y-64900000D03*
X99850000Y-64900000D03*
X108150000Y-64900000D03*
X109650000Y-64900000D03*
D19*
X124400000Y-79249000D03*
X124400000Y-82551000D03*
D13*
X124950000Y-75350000D03*
X123450000Y-75350000D03*
X57250000Y-110000000D03*
X58750000Y-110000000D03*
X76500000Y-114000000D03*
X78000000Y-114000000D03*
X76500000Y-110000000D03*
X78000000Y-110000000D03*
X57250000Y-114000000D03*
X58750000Y-114000000D03*
X57250000Y-97500000D03*
X58750000Y-97500000D03*
X76500000Y-101750000D03*
X78000000Y-101750000D03*
X76500000Y-97750000D03*
X78000000Y-97750000D03*
X57250000Y-101500000D03*
X58750000Y-101500000D03*
X57000000Y-85000000D03*
X58500000Y-85000000D03*
X76500000Y-89250000D03*
X78000000Y-89250000D03*
X76500000Y-85250000D03*
X78000000Y-85250000D03*
X57000000Y-89000000D03*
X58500000Y-89000000D03*
X57250000Y-72500000D03*
X58750000Y-72500000D03*
X76250000Y-76750000D03*
X77750000Y-76750000D03*
X76250000Y-72750000D03*
X77750000Y-72750000D03*
X57250000Y-76500000D03*
X58750000Y-76500000D03*
D18*
X44750000Y-74500000D03*
X46250000Y-74500000D03*
X57250000Y-74500000D03*
X58750000Y-74500000D03*
X44750000Y-99500000D03*
X46250000Y-99500000D03*
X57250000Y-87000000D03*
X58750000Y-87000000D03*
X44750000Y-87000000D03*
X46250000Y-87000000D03*
X57250000Y-99500000D03*
X58750000Y-99500000D03*
X63750000Y-112000000D03*
X65250000Y-112000000D03*
X76500000Y-112000000D03*
X78000000Y-112000000D03*
D20*
X62900000Y-114000000D03*
X65100000Y-114000000D03*
X62900000Y-110000000D03*
X65100000Y-110000000D03*
X43900000Y-114000000D03*
X46100000Y-114000000D03*
X43900000Y-110000000D03*
X46100000Y-110000000D03*
X62900000Y-101750000D03*
X65100000Y-101750000D03*
X62900000Y-97750000D03*
X65100000Y-97750000D03*
X43900000Y-101500000D03*
X46100000Y-101500000D03*
X43900000Y-97500000D03*
X46100000Y-97500000D03*
X63150000Y-89250000D03*
X65350000Y-89250000D03*
X63150000Y-85250000D03*
X65350000Y-85250000D03*
X46100000Y-89000000D03*
X43900000Y-89000000D03*
X43900000Y-85000000D03*
X46100000Y-85000000D03*
X63150000Y-76750000D03*
X65350000Y-76750000D03*
X63150000Y-72750000D03*
X65350000Y-72750000D03*
X46100000Y-76500000D03*
X43900000Y-76500000D03*
X43900000Y-72500000D03*
X46100000Y-72500000D03*
D21*
X138700000Y-73350000D03*
X138700000Y-71850000D03*
X126700000Y-68450000D03*
X126700000Y-69950000D03*
X129100000Y-68450000D03*
X129100000Y-69950000D03*
D13*
X128200000Y-75350000D03*
X126700000Y-75350000D03*
X121700000Y-75350000D03*
X120200000Y-75350000D03*
D18*
X127650000Y-63500000D03*
X129150000Y-63500000D03*
X128250000Y-73200000D03*
X126750000Y-73200000D03*
X140150000Y-77100000D03*
X138650000Y-77100000D03*
X126550000Y-77700000D03*
X128050000Y-77700000D03*
D17*
X68300000Y-108190000D03*
X68300000Y-109460000D03*
X68300000Y-110730000D03*
X68300000Y-112000000D03*
X68300000Y-113270000D03*
X68300000Y-114540000D03*
X68300000Y-115810000D03*
X73700000Y-115810000D03*
X73700000Y-114540000D03*
X73700000Y-113270000D03*
X73700000Y-112000000D03*
X73700000Y-110730000D03*
X73700000Y-109460000D03*
X73700000Y-108190000D03*
X49050000Y-108190000D03*
X49050000Y-109460000D03*
X49050000Y-110730000D03*
X49050000Y-112000000D03*
X49050000Y-113270000D03*
X49050000Y-114540000D03*
X49050000Y-115810000D03*
X54450000Y-115810000D03*
X54450000Y-114540000D03*
X54450000Y-113270000D03*
X54450000Y-112000000D03*
X54450000Y-110730000D03*
X54450000Y-109460000D03*
X54450000Y-108190000D03*
D18*
X44750000Y-112000000D03*
X46250000Y-112000000D03*
X57250000Y-112000000D03*
X58750000Y-112000000D03*
D22*
X76550000Y-116000000D03*
X78450000Y-116000000D03*
X76550000Y-108000000D03*
X78450000Y-108000000D03*
X57300000Y-116000000D03*
X59200000Y-116000000D03*
X57300000Y-108000000D03*
X59200000Y-108000000D03*
X52450000Y-125400000D03*
X54350000Y-125400000D03*
X52450000Y-123400000D03*
X54350000Y-123400000D03*
D23*
X60900000Y-121150000D03*
X60900000Y-122650000D03*
X60900000Y-133650000D03*
X60900000Y-135150000D03*
D22*
X69450000Y-125000000D03*
X71350000Y-125000000D03*
X69450000Y-123000000D03*
X71350000Y-123000000D03*
D23*
X77900000Y-121050000D03*
X77900000Y-122550000D03*
X77900000Y-133550000D03*
X77900000Y-135050000D03*
D22*
X86050000Y-125300000D03*
X87950000Y-125300000D03*
X86050000Y-123300000D03*
X87950000Y-123300000D03*
D23*
X94250000Y-121050000D03*
X94250000Y-122550000D03*
X94250000Y-133550000D03*
X94250000Y-135050000D03*
D17*
X68300000Y-95940000D03*
X68300000Y-97210000D03*
X68300000Y-98480000D03*
X68300000Y-99750000D03*
X68300000Y-101020000D03*
X68300000Y-102290000D03*
X68300000Y-103560000D03*
X73700000Y-103560000D03*
X73700000Y-102290000D03*
X73700000Y-101020000D03*
X73700000Y-99750000D03*
X73700000Y-98480000D03*
X73700000Y-97210000D03*
X73700000Y-95940000D03*
X49050000Y-95690000D03*
X49050000Y-96960000D03*
X49050000Y-98230000D03*
X49050000Y-99500000D03*
X49050000Y-100770000D03*
X49050000Y-102040000D03*
X49050000Y-103310000D03*
X54450000Y-103310000D03*
X54450000Y-102040000D03*
X54450000Y-100770000D03*
X54450000Y-99500000D03*
X54450000Y-98230000D03*
X54450000Y-96960000D03*
X54450000Y-95690000D03*
X68300000Y-83440000D03*
X68300000Y-84710000D03*
X68300000Y-85980000D03*
X68300000Y-87250000D03*
X68300000Y-88520000D03*
X68300000Y-89790000D03*
X68300000Y-91060000D03*
X73700000Y-91060000D03*
X73700000Y-89790000D03*
X73700000Y-88520000D03*
X73700000Y-87250000D03*
X73700000Y-85980000D03*
X73700000Y-84710000D03*
X73700000Y-83440000D03*
X49050000Y-83190000D03*
X49050000Y-84460000D03*
X49050000Y-85730000D03*
X49050000Y-87000000D03*
X49050000Y-88270000D03*
X49050000Y-89540000D03*
X49050000Y-90810000D03*
X54450000Y-90810000D03*
X54450000Y-89540000D03*
X54450000Y-88270000D03*
X54450000Y-87000000D03*
X54450000Y-85730000D03*
X54450000Y-84460000D03*
X54450000Y-83190000D03*
X68300000Y-70940000D03*
X68300000Y-72210000D03*
X68300000Y-73480000D03*
X68300000Y-74750000D03*
X68300000Y-76020000D03*
X68300000Y-77290000D03*
X68300000Y-78560000D03*
X73700000Y-78560000D03*
X73700000Y-77290000D03*
X73700000Y-76020000D03*
X73700000Y-74750000D03*
X73700000Y-73480000D03*
X73700000Y-72210000D03*
X73700000Y-70940000D03*
X49050000Y-70690000D03*
X49050000Y-71960000D03*
X49050000Y-73230000D03*
X49050000Y-74500000D03*
X49050000Y-75770000D03*
X49050000Y-77040000D03*
X49050000Y-78310000D03*
X54450000Y-78310000D03*
X54450000Y-77040000D03*
X54450000Y-75770000D03*
X54450000Y-74500000D03*
X54450000Y-73230000D03*
X54450000Y-71960000D03*
X54450000Y-70690000D03*
D24*
X71160000Y-128450000D03*
X69640000Y-128450000D03*
X71160000Y-127650000D03*
X69640000Y-127650000D03*
X71160000Y-129250000D03*
X71160000Y-126850000D03*
X69640000Y-126850000D03*
X69640000Y-129250000D03*
X87510000Y-128450000D03*
X85990000Y-128450000D03*
X87510000Y-127650000D03*
X85990000Y-127650000D03*
X87510000Y-129250000D03*
X87510000Y-126850000D03*
X85990000Y-126850000D03*
X85990000Y-129250000D03*
D25*
X99100000Y-97400000D03*
X99100000Y-100400000D03*
D23*
X96300000Y-98150000D03*
X96300000Y-99650000D03*
D18*
X99750000Y-102600000D03*
X98250000Y-102600000D03*
D24*
X54160000Y-128550000D03*
X52640000Y-128550000D03*
X54160000Y-127750000D03*
X52640000Y-127750000D03*
X54160000Y-129350000D03*
X54160000Y-126950000D03*
X52640000Y-126950000D03*
X52640000Y-129350000D03*
D13*
X64150000Y-122650000D03*
X62650000Y-122650000D03*
X57650000Y-122650000D03*
X59150000Y-122650000D03*
X64150000Y-133650000D03*
X62650000Y-133650000D03*
X57650000Y-133650000D03*
X59150000Y-133650000D03*
D18*
X63750000Y-99750000D03*
X65250000Y-99750000D03*
X76500000Y-99750000D03*
X78000000Y-99750000D03*
X64000000Y-87250000D03*
X65500000Y-87250000D03*
X76500000Y-87250000D03*
X78000000Y-87250000D03*
X64000000Y-74750000D03*
X65500000Y-74750000D03*
X76250000Y-74750000D03*
X77750000Y-74750000D03*
D13*
X74650000Y-122550000D03*
X76150000Y-122550000D03*
X81150000Y-122550000D03*
X79650000Y-122550000D03*
X81150000Y-133550000D03*
X79650000Y-133550000D03*
X74650000Y-133550000D03*
X76150000Y-133550000D03*
X91000000Y-122550000D03*
X92500000Y-122550000D03*
X97500000Y-122550000D03*
X96000000Y-122550000D03*
X97500000Y-133550000D03*
X96000000Y-133550000D03*
X91000000Y-133550000D03*
X92500000Y-133550000D03*
D15*
X109391000Y-100084000D03*
D16*
X103091000Y-100084000D03*
X103091000Y-102384000D03*
X103091000Y-97784000D03*
D26*
X96271000Y-92586500D03*
X96271000Y-92086500D03*
X96271000Y-91586500D03*
X96271000Y-91086500D03*
X96271000Y-90586500D03*
X96271000Y-90086500D03*
X96271000Y-89586500D03*
X96271000Y-89086500D03*
X96271000Y-88586500D03*
X96271000Y-88086500D03*
X96271000Y-87586500D03*
X96271000Y-87086500D03*
X96271000Y-86586500D03*
X96271000Y-86086500D03*
X96271000Y-85586500D03*
X96271000Y-85086500D03*
D27*
X95571000Y-84386500D03*
X95071000Y-84386500D03*
X94571000Y-84386500D03*
X94071000Y-84386500D03*
X93571000Y-84386500D03*
X93071000Y-84386500D03*
X92571000Y-84386500D03*
X92071000Y-84386500D03*
X91571000Y-84386500D03*
X91071000Y-84386500D03*
X90571000Y-84386500D03*
X90071000Y-84386500D03*
X89571000Y-84386500D03*
X89071000Y-84386500D03*
X88571000Y-84386500D03*
X88071000Y-84386500D03*
D26*
X87371000Y-85086500D03*
X87371000Y-85586500D03*
X87371000Y-86086500D03*
X87371000Y-86586500D03*
X87371000Y-87086500D03*
X87371000Y-87586500D03*
X87371000Y-88086500D03*
X87371000Y-88586500D03*
X87371000Y-89086500D03*
X87371000Y-89586500D03*
X87371000Y-90086500D03*
X87371000Y-90586500D03*
X87371000Y-91086500D03*
X87371000Y-91586500D03*
X87371000Y-92086500D03*
X87371000Y-92586500D03*
D27*
X88071000Y-93286500D03*
X88571000Y-93286500D03*
X89071000Y-93286500D03*
X89571000Y-93286500D03*
X90071000Y-93286500D03*
X90571000Y-93286500D03*
X91071000Y-93286500D03*
X91571000Y-93286500D03*
X92071000Y-93286500D03*
X92571000Y-93286500D03*
X93071000Y-93286500D03*
X93571000Y-93286500D03*
X94071000Y-93286500D03*
X94571000Y-93286500D03*
X95071000Y-93286500D03*
X95571000Y-93286500D03*
D28*
X89064750Y-86080250D03*
X89064750Y-87917750D03*
X89064750Y-89755250D03*
X89064750Y-91592750D03*
X90902250Y-86080250D03*
X90902250Y-87917750D03*
X90902250Y-89755250D03*
X90902250Y-91592750D03*
X92739750Y-86080250D03*
X92739750Y-87917750D03*
X92739750Y-89755250D03*
X92739750Y-91592750D03*
X94577250Y-86080250D03*
X94577250Y-87917750D03*
X94577250Y-89755250D03*
X94577250Y-91592750D03*
D29*
X57090000Y-130850000D03*
X58360000Y-130850000D03*
X59630000Y-130850000D03*
X60900000Y-130850000D03*
X62170000Y-130850000D03*
X63440000Y-130850000D03*
X64710000Y-130850000D03*
X64710000Y-125450000D03*
X63440000Y-125450000D03*
X62170000Y-125450000D03*
X60900000Y-125450000D03*
X59630000Y-125450000D03*
X58360000Y-125450000D03*
X57090000Y-125450000D03*
X74090000Y-130750000D03*
X75360000Y-130750000D03*
X76630000Y-130750000D03*
X77900000Y-130750000D03*
X79170000Y-130750000D03*
X80440000Y-130750000D03*
X81710000Y-130750000D03*
X81710000Y-125350000D03*
X80440000Y-125350000D03*
X79170000Y-125350000D03*
X77900000Y-125350000D03*
X76630000Y-125350000D03*
X75360000Y-125350000D03*
X74090000Y-125350000D03*
X90440000Y-130750000D03*
X91710000Y-130750000D03*
X92980000Y-130750000D03*
X94250000Y-130750000D03*
X95520000Y-130750000D03*
X96790000Y-130750000D03*
X98060000Y-130750000D03*
X98060000Y-125350000D03*
X96790000Y-125350000D03*
X95520000Y-125350000D03*
X94250000Y-125350000D03*
X92980000Y-125350000D03*
X91710000Y-125350000D03*
X90440000Y-125350000D03*
D22*
X76550000Y-103750000D03*
X78450000Y-103750000D03*
X76550000Y-95750000D03*
X78450000Y-95750000D03*
X57050000Y-103500000D03*
X58950000Y-103500000D03*
X57050000Y-95500000D03*
X58950000Y-95500000D03*
X76550000Y-91250000D03*
X78450000Y-91250000D03*
X76550000Y-83250000D03*
X78450000Y-83250000D03*
X57050000Y-91000000D03*
X58950000Y-91000000D03*
X57050000Y-83000000D03*
X58950000Y-83000000D03*
X76300000Y-78750000D03*
X78200000Y-78750000D03*
X76300000Y-70750000D03*
X78200000Y-70750000D03*
X57300000Y-78500000D03*
X59200000Y-78500000D03*
X57300000Y-70500000D03*
X59200000Y-70500000D03*
X52450000Y-133150000D03*
X54350000Y-133150000D03*
X52450000Y-131150000D03*
X54350000Y-131150000D03*
X69450000Y-133200000D03*
X71350000Y-133200000D03*
X69450000Y-131200000D03*
X71350000Y-131200000D03*
X86050000Y-133050000D03*
X87950000Y-133050000D03*
X86050000Y-131050000D03*
X87950000Y-131050000D03*
D23*
X88328500Y-95389000D03*
X88328500Y-96889000D03*
X92773500Y-82284000D03*
X92773500Y-80784000D03*
D18*
X98373500Y-89344500D03*
X99873500Y-89344500D03*
M02*
