G04 #@! TF.FileFunction,Legend,Bot*
%FSLAX46Y46*%
G04 Gerber Fmt 4.6, Leading zero omitted, Abs format (unit mm)*
G04 Created by KiCad (PCBNEW 4.0.1-3.201512150931+6195~38~ubuntu15.04.1-stable) date Sun 01 May 2016 04:30:14 AM CDT*
%MOMM*%
G01*
G04 APERTURE LIST*
%ADD10C,0.100000*%
%ADD11C,0.457200*%
G04 APERTURE END LIST*
D10*
D11*
X136361714Y-123608495D02*
X135998857Y-123729448D01*
X135394095Y-123729448D01*
X135152191Y-123608495D01*
X135031238Y-123487543D01*
X134910286Y-123245638D01*
X134910286Y-123003733D01*
X135031238Y-122761829D01*
X135152191Y-122640876D01*
X135394095Y-122519924D01*
X135877905Y-122398971D01*
X136119810Y-122278019D01*
X136240762Y-122157067D01*
X136361714Y-121915162D01*
X136361714Y-121673257D01*
X136240762Y-121431352D01*
X136119810Y-121310400D01*
X135877905Y-121189448D01*
X135273143Y-121189448D01*
X134910286Y-121310400D01*
X135636000Y-126533124D02*
X135636000Y-127742648D01*
X136482666Y-125202648D02*
X135636000Y-126533124D01*
X134789333Y-125202648D01*
X136361714Y-131634895D02*
X135998857Y-131755848D01*
X135394095Y-131755848D01*
X135152191Y-131634895D01*
X135031238Y-131513943D01*
X134910286Y-131272038D01*
X134910286Y-131030133D01*
X135031238Y-130788229D01*
X135152191Y-130667276D01*
X135394095Y-130546324D01*
X135877905Y-130425371D01*
X136119810Y-130304419D01*
X136240762Y-130183467D01*
X136361714Y-129941562D01*
X136361714Y-129699657D01*
X136240762Y-129457752D01*
X136119810Y-129336800D01*
X135877905Y-129215848D01*
X135273143Y-129215848D01*
X134910286Y-129336800D01*
X136361714Y-133229048D02*
X134910286Y-133229048D01*
X135636000Y-135769048D02*
X135636000Y-133229048D01*
X136180285Y-138451771D02*
X135333618Y-138451771D01*
X134970761Y-139782248D02*
X136180285Y-139782248D01*
X136180285Y-137242248D01*
X134970761Y-137242248D01*
X136482666Y-143795448D02*
X136482666Y-141255448D01*
X135635999Y-143069733D01*
X134789333Y-141255448D01*
X134789333Y-143795448D01*
X136361714Y-147687695D02*
X135998857Y-147808648D01*
X135394095Y-147808648D01*
X135152191Y-147687695D01*
X135031238Y-147566743D01*
X134910286Y-147324838D01*
X134910286Y-147082933D01*
X135031238Y-146841029D01*
X135152191Y-146720076D01*
X135394095Y-146599124D01*
X135877905Y-146478171D01*
X136119810Y-146357219D01*
X136240762Y-146236267D01*
X136361714Y-145994362D01*
X136361714Y-145752457D01*
X136240762Y-145510552D01*
X136119810Y-145389600D01*
X135877905Y-145268648D01*
X135273143Y-145268648D01*
X134910286Y-145389600D01*
X140728094Y-133229048D02*
X140244284Y-133229048D01*
X140002379Y-133350000D01*
X139760475Y-133591905D01*
X139639522Y-134075714D01*
X139639522Y-134922381D01*
X139760475Y-135406190D01*
X140002379Y-135648095D01*
X140244284Y-135769048D01*
X140728094Y-135769048D01*
X140969998Y-135648095D01*
X141211903Y-135406190D01*
X141332855Y-134922381D01*
X141332855Y-134075714D01*
X141211903Y-133591905D01*
X140969998Y-133350000D01*
X140728094Y-133229048D01*
X137099523Y-135769048D02*
X137946189Y-134559524D01*
X138550951Y-135769048D02*
X138550951Y-133229048D01*
X137583332Y-133229048D01*
X137341427Y-133350000D01*
X137220475Y-133470952D01*
X137099523Y-133712857D01*
X137099523Y-134075714D01*
X137220475Y-134317619D01*
X137341427Y-134438571D01*
X137583332Y-134559524D01*
X138550951Y-134559524D01*
X136373808Y-133229048D02*
X134922380Y-133229048D01*
X135648094Y-135769048D02*
X135648094Y-133229048D01*
X134075713Y-135769048D02*
X134075713Y-133229048D01*
X134075713Y-134438571D02*
X132624285Y-134438571D01*
X132624285Y-135769048D02*
X132624285Y-133229048D01*
X130930952Y-133229048D02*
X130447142Y-133229048D01*
X130205237Y-133350000D01*
X129963333Y-133591905D01*
X129842380Y-134075714D01*
X129842380Y-134922381D01*
X129963333Y-135406190D01*
X130205237Y-135648095D01*
X130447142Y-135769048D01*
X130930952Y-135769048D01*
X131172856Y-135648095D01*
X131414761Y-135406190D01*
X131535713Y-134922381D01*
X131535713Y-134075714D01*
X131414761Y-133591905D01*
X131172856Y-133350000D01*
X130930952Y-133229048D01*
X127423333Y-133350000D02*
X127665238Y-133229048D01*
X128028095Y-133229048D01*
X128390952Y-133350000D01*
X128632857Y-133591905D01*
X128753809Y-133833810D01*
X128874761Y-134317619D01*
X128874761Y-134680476D01*
X128753809Y-135164286D01*
X128632857Y-135406190D01*
X128390952Y-135648095D01*
X128028095Y-135769048D01*
X127786190Y-135769048D01*
X127423333Y-135648095D01*
X127302381Y-135527143D01*
X127302381Y-134680476D01*
X127786190Y-134680476D01*
X125730000Y-133229048D02*
X125246190Y-133229048D01*
X125004285Y-133350000D01*
X124762381Y-133591905D01*
X124641428Y-134075714D01*
X124641428Y-134922381D01*
X124762381Y-135406190D01*
X125004285Y-135648095D01*
X125246190Y-135769048D01*
X125730000Y-135769048D01*
X125971904Y-135648095D01*
X126213809Y-135406190D01*
X126334761Y-134922381D01*
X126334761Y-134075714D01*
X126213809Y-133591905D01*
X125971904Y-133350000D01*
X125730000Y-133229048D01*
X123552857Y-135769048D02*
X123552857Y-133229048D01*
X122101429Y-135769048D01*
X122101429Y-133229048D01*
X121012857Y-135043333D02*
X119803334Y-135043333D01*
X121254762Y-135769048D02*
X120408096Y-133229048D01*
X119561429Y-135769048D01*
X117505238Y-135769048D02*
X118714762Y-135769048D01*
X118714762Y-133229048D01*
M02*
