G04 #@! TF.FileFunction,Copper,L3,Inr,Signal*
%FSLAX46Y46*%
G04 Gerber Fmt 4.6, Leading zero omitted, Abs format (unit mm)*
G04 Created by KiCad (PCBNEW 4.0.6-e0-6349~53~ubuntu16.04.1) date Sun Mar 26 23:02:30 2017*
%MOMM*%
%LPD*%
G01*
G04 APERTURE LIST*
%ADD10C,0.100000*%
%ADD11C,1.670000*%
%ADD12R,1.727200X1.727200*%
%ADD13O,1.727200X1.727200*%
%ADD14C,2.500000*%
%ADD15C,0.600000*%
%ADD16C,1.000000*%
%ADD17C,0.250000*%
G04 APERTURE END LIST*
D10*
D11*
X160020000Y-119380000D03*
X157480000Y-119380000D03*
X157480000Y-116840000D03*
X160020000Y-116840000D03*
X160020000Y-114300000D03*
X157480000Y-114300000D03*
X147320000Y-60960000D03*
X149860000Y-60960000D03*
X149860000Y-63500000D03*
X147320000Y-63500000D03*
X147320000Y-83820000D03*
X149860000Y-83820000D03*
X149860000Y-81280000D03*
X147320000Y-81280000D03*
X147320000Y-76200000D03*
X149860000Y-76200000D03*
X149860000Y-78740000D03*
X147320000Y-78740000D03*
X147320000Y-68580000D03*
X149860000Y-68580000D03*
X149860000Y-66040000D03*
X147320000Y-66040000D03*
X147320000Y-71120000D03*
X149860000Y-71120000D03*
X149860000Y-73660000D03*
X147320000Y-73660000D03*
X147320000Y-93980000D03*
X149860000Y-93980000D03*
X149860000Y-91440000D03*
X147320000Y-91440000D03*
X147320000Y-86360000D03*
X149860000Y-86360000D03*
X149860000Y-88900000D03*
X147320000Y-88900000D03*
X147320000Y-99060000D03*
X149860000Y-99060000D03*
X149860000Y-96520000D03*
X147320000Y-96520000D03*
X147320000Y-101600000D03*
X149860000Y-101600000D03*
X149860000Y-104140000D03*
X147320000Y-104140000D03*
X127000000Y-109220000D03*
X129540000Y-109220000D03*
X134620000Y-109220000D03*
X132080000Y-109220000D03*
X142240000Y-109220000D03*
X144780000Y-109220000D03*
X139700000Y-109220000D03*
X137160000Y-109220000D03*
X114300000Y-109220000D03*
X116840000Y-109220000D03*
X121920000Y-109220000D03*
X119380000Y-109220000D03*
X109220000Y-109220000D03*
X111760000Y-109220000D03*
X106680000Y-109220000D03*
X104140000Y-109220000D03*
X81280000Y-109220000D03*
X83820000Y-109220000D03*
X88900000Y-109220000D03*
X86360000Y-109220000D03*
X96520000Y-109220000D03*
X99060000Y-109220000D03*
X93980000Y-109220000D03*
X91440000Y-109220000D03*
X121920000Y-60960000D03*
X124460000Y-60960000D03*
X129540000Y-60960000D03*
X127000000Y-60960000D03*
X137160000Y-60960000D03*
X139700000Y-60960000D03*
X134620000Y-60960000D03*
X132080000Y-60960000D03*
X109220000Y-60960000D03*
X111760000Y-60960000D03*
X116840000Y-60960000D03*
X114300000Y-60960000D03*
X104140000Y-60960000D03*
X106680000Y-60960000D03*
X101600000Y-60960000D03*
X99060000Y-60960000D03*
X92456000Y-60960000D03*
X94996000Y-60960000D03*
X82296000Y-60960000D03*
X84836000Y-60960000D03*
X89916000Y-60960000D03*
X87376000Y-60960000D03*
X77216000Y-60960000D03*
X79756000Y-60960000D03*
X74676000Y-60960000D03*
X72136000Y-60960000D03*
D12*
X40462200Y-132880000D03*
D13*
X37922200Y-132880000D03*
X40462200Y-130340000D03*
X37922200Y-130340000D03*
X40462200Y-127800000D03*
X37922200Y-127800000D03*
X40462200Y-125260000D03*
X37922200Y-125260000D03*
X40462200Y-122720000D03*
X37922200Y-122720000D03*
X40462200Y-120180000D03*
X37922200Y-120180000D03*
X40462200Y-117640000D03*
X37922200Y-117640000D03*
X40462200Y-115100000D03*
X37922200Y-115100000D03*
X40462200Y-112560000D03*
X37922200Y-112560000D03*
X40462200Y-110020000D03*
X37922200Y-110020000D03*
X40462200Y-107480000D03*
X37922200Y-107480000D03*
X40462200Y-104940000D03*
X37922200Y-104940000D03*
X40462200Y-102400000D03*
X37922200Y-102400000D03*
X40462200Y-99860000D03*
X37922200Y-99860000D03*
X40462200Y-97320000D03*
X37922200Y-97320000D03*
X40462200Y-94780000D03*
X37922200Y-94780000D03*
X40462200Y-92240000D03*
X37922200Y-92240000D03*
X40462200Y-89700000D03*
X37922200Y-89700000D03*
X40462200Y-87160000D03*
X37922200Y-87160000D03*
X40462200Y-84620000D03*
X37922200Y-84620000D03*
X40462200Y-82080000D03*
X37922200Y-82080000D03*
X40462200Y-79540000D03*
X37922200Y-79540000D03*
X40462200Y-77000000D03*
X37922200Y-77000000D03*
X40462200Y-74460000D03*
X37922200Y-74460000D03*
X40462200Y-71920000D03*
X37922200Y-71920000D03*
D14*
X33720000Y-60710000D03*
X33720000Y-65790000D03*
X28280000Y-65790000D03*
X28280000Y-60710000D03*
X33720000Y-138210000D03*
X33720000Y-143290000D03*
X28280000Y-143290000D03*
X28280000Y-138210000D03*
D15*
X90902250Y-86080250D03*
X93000000Y-86000000D03*
X94577250Y-86080250D03*
X95000000Y-88000000D03*
X94577250Y-89755250D03*
X95000000Y-92000000D03*
X87000000Y-84000000D03*
X87000000Y-97000000D03*
X91000000Y-95400000D03*
X43000000Y-132800000D03*
X45200000Y-134200000D03*
X54000000Y-134600000D03*
X56000000Y-135000000D03*
X51200000Y-140000000D03*
X52800000Y-141400000D03*
X57000000Y-141600000D03*
X65600000Y-141600000D03*
X67800000Y-137000000D03*
X72400000Y-136200000D03*
X71600000Y-141400000D03*
X80400000Y-141200000D03*
X86600000Y-141400000D03*
X87400000Y-136200000D03*
X91000000Y-139000000D03*
X112200000Y-134000000D03*
X126600000Y-141400000D03*
X137600000Y-135000000D03*
X121000000Y-134200000D03*
X114200000Y-142400000D03*
X101000000Y-142800000D03*
X105000000Y-137800000D03*
X108200000Y-127600000D03*
X129000000Y-127400000D03*
X146800000Y-127400000D03*
X144400000Y-116800000D03*
X137800000Y-112200000D03*
X133000000Y-116800000D03*
X127200000Y-113800000D03*
X118800000Y-116400000D03*
X114400000Y-113400000D03*
X107200000Y-116200000D03*
X105200000Y-113800000D03*
X96600000Y-118800000D03*
X92800000Y-113400000D03*
X86600000Y-113400000D03*
X84800000Y-119000000D03*
X81000000Y-118200000D03*
X76400000Y-120000000D03*
X70600000Y-120800000D03*
X70400000Y-117200000D03*
X70200000Y-111600000D03*
X70000000Y-106600000D03*
X70200000Y-102000000D03*
X70200000Y-92400000D03*
X70600000Y-88200000D03*
X70600000Y-81000000D03*
X78600000Y-81000000D03*
X81400000Y-83400000D03*
X81400000Y-78800000D03*
X85400000Y-80600000D03*
X85200000Y-76600000D03*
X82200000Y-72800000D03*
X87800000Y-72400000D03*
X89800000Y-74800000D03*
X93400000Y-72800000D03*
X95000000Y-75400000D03*
X102400000Y-82400000D03*
X126000000Y-82600000D03*
X138700000Y-74000000D03*
X141000000Y-77100000D03*
X126600000Y-78600000D03*
X126500000Y-63500000D03*
D16*
X97100000Y-101300000D03*
D15*
X107800000Y-77100000D03*
X96700000Y-76200000D03*
X115400000Y-67300000D03*
X105100000Y-66800000D03*
X110400000Y-64900000D03*
X100600000Y-64900000D03*
X43650000Y-74250000D03*
X88900000Y-123300000D03*
X94200000Y-120300000D03*
X88900000Y-125300000D03*
X88900000Y-131100000D03*
X88900000Y-133300000D03*
X94300000Y-135700000D03*
X77900000Y-120300000D03*
X72300000Y-125000000D03*
X72300000Y-123000000D03*
X72300000Y-131200000D03*
X77900000Y-135800000D03*
X72300000Y-133200000D03*
X60900000Y-120400000D03*
X60900000Y-135900000D03*
X55300000Y-131100000D03*
X55300000Y-133100000D03*
X55300000Y-125400000D03*
X55300000Y-123400000D03*
X78450000Y-74750000D03*
X79250000Y-78750000D03*
X79475000Y-83625000D03*
X78725000Y-87300000D03*
X79300000Y-91250000D03*
X79200000Y-95050000D03*
X78675000Y-99750000D03*
X79300000Y-103750000D03*
X79150000Y-107375000D03*
X78775000Y-112000000D03*
X78700000Y-71300000D03*
X79375000Y-115475000D03*
X59750000Y-94900000D03*
X62725000Y-99700000D03*
X59125000Y-98725000D03*
X59750000Y-103250000D03*
X59875000Y-108500000D03*
X59425000Y-112000000D03*
X62850000Y-112050000D03*
X59850000Y-115325000D03*
X59825000Y-90325000D03*
X62525000Y-87250000D03*
X59425000Y-86400000D03*
X59975000Y-83050000D03*
X59500000Y-71500000D03*
X59850000Y-77700000D03*
X62775000Y-74500000D03*
X59425000Y-74500000D03*
X43775000Y-111975000D03*
X43850000Y-99100000D03*
X43900000Y-86475000D03*
X87566500Y-78105000D03*
X88709500Y-85788500D03*
X92739750Y-87917750D03*
X92710000Y-89725500D03*
X92739750Y-91592750D03*
X90868500Y-91567000D03*
X90902250Y-89755250D03*
X90932000Y-87884000D03*
X89064750Y-87917750D03*
X89027000Y-89725500D03*
X89064750Y-91592750D03*
D16*
X101500000Y-103400000D03*
X87300000Y-95400000D03*
D15*
X116500000Y-80000000D03*
X116500000Y-76000000D03*
X118500000Y-66500000D03*
X97500000Y-86600000D03*
X97500000Y-89300000D03*
D16*
X118450000Y-62750000D03*
D15*
X97950000Y-85050000D03*
X100647500Y-89408000D03*
X98200000Y-87200000D03*
X96456500Y-93535500D03*
X97800000Y-97200000D03*
X60000000Y-134200000D03*
X77200000Y-133800000D03*
D16*
X128400000Y-78700000D03*
X135300000Y-67800000D03*
D15*
X91300000Y-94400000D03*
X92900000Y-83100000D03*
X93700000Y-132300000D03*
D16*
X75700000Y-86250000D03*
X75825000Y-98900000D03*
X75525000Y-73850000D03*
X75600000Y-111425000D03*
X56950000Y-86175000D03*
X56775000Y-98725000D03*
X56050000Y-111350000D03*
X56025000Y-73975000D03*
X138700000Y-78700000D03*
X144300000Y-102300000D03*
X65800000Y-111200000D03*
X93900000Y-123800000D03*
X60500000Y-123900000D03*
X77500000Y-123800000D03*
X66675000Y-86850000D03*
X66525000Y-99325000D03*
X66350000Y-74050000D03*
X47375000Y-98850000D03*
X47275000Y-86300000D03*
X47575000Y-112325000D03*
X47396635Y-73813365D03*
D15*
X114200000Y-80200000D03*
X92300000Y-93900000D03*
X111250000Y-81750000D03*
X117750000Y-87500000D03*
X116500000Y-97250000D03*
X116500000Y-87500000D03*
X104500000Y-82500000D03*
X107000000Y-89250000D03*
X107000000Y-83750000D03*
X110250000Y-83500000D03*
X110000000Y-93500000D03*
X42700000Y-121200000D03*
X43100000Y-122300000D03*
X42900000Y-119900000D03*
X42200000Y-118300000D03*
X53400000Y-64600000D03*
X88000000Y-67600000D03*
X88400000Y-64100002D03*
X83200000Y-67600000D03*
X83200000Y-64700000D03*
X77800000Y-67300000D03*
X78000000Y-64700000D03*
X72800000Y-67600000D03*
X73000000Y-64700000D03*
X67700000Y-64700000D03*
X63300000Y-67200000D03*
X63000000Y-64400000D03*
X58100000Y-64700000D03*
X116400000Y-64500000D03*
X66170000Y-114720000D03*
X63930000Y-113980000D03*
X41360000Y-111360000D03*
X43590000Y-118050000D03*
X41870000Y-109190000D03*
X43600000Y-116240000D03*
X42330000Y-107840000D03*
X45270000Y-113330000D03*
X43260000Y-106880000D03*
X45140000Y-109990000D03*
X65200000Y-102800000D03*
X63900000Y-101800000D03*
X42800000Y-104600000D03*
X41150000Y-98650000D03*
X44050000Y-104050000D03*
X44600000Y-100800000D03*
X47500000Y-102000000D03*
X43200000Y-95900000D03*
X46900000Y-97900000D03*
X64500000Y-90800000D03*
X66500000Y-89100000D03*
X46100000Y-90100000D03*
X47400000Y-88800000D03*
X66500000Y-77250000D03*
X64250000Y-76000000D03*
X47125000Y-75750000D03*
X45000000Y-77250000D03*
X91000000Y-134900000D03*
X90300000Y-82900000D03*
X91400000Y-83200000D03*
X98800000Y-133500000D03*
X97500000Y-121000000D03*
X91600000Y-82400000D03*
X90500000Y-121100000D03*
X94300000Y-82300000D03*
X74500000Y-134700000D03*
X95700000Y-82200000D03*
X97500000Y-83000000D03*
X81900000Y-133500000D03*
X87400000Y-104500000D03*
X75900000Y-117800000D03*
X88200000Y-103700000D03*
X73500000Y-121500000D03*
X89700000Y-99700000D03*
X57500000Y-134800000D03*
X64100000Y-135200000D03*
X92500000Y-94700000D03*
X69300000Y-118800000D03*
X93200000Y-95400000D03*
X90700000Y-98800000D03*
X57600000Y-121200000D03*
X59500000Y-76500000D03*
X84500000Y-84000000D03*
X84500000Y-83000000D03*
X59500000Y-72500000D03*
X59500000Y-89000000D03*
X82500000Y-86000000D03*
X82500000Y-85000000D03*
X59250000Y-85000000D03*
X83250000Y-89750000D03*
X59500000Y-101500000D03*
X59500000Y-97500000D03*
X82250000Y-89500000D03*
X83500000Y-93500000D03*
X59500000Y-114000000D03*
X59500000Y-110000000D03*
X83500000Y-92500000D03*
X58400000Y-62900000D03*
X105800000Y-67600000D03*
X83400000Y-71400000D03*
X106500000Y-72300000D03*
X106500000Y-73700000D03*
X92100000Y-71400000D03*
X54800000Y-67000000D03*
X107000000Y-69800000D03*
X112900000Y-71100000D03*
X91300000Y-65800000D03*
X72200000Y-83400000D03*
X74400000Y-64700000D03*
X112800000Y-72300000D03*
X93200000Y-65500000D03*
X53100000Y-90800000D03*
X60000000Y-64700000D03*
X84200000Y-66800000D03*
X90400000Y-64700000D03*
X112600000Y-69900000D03*
X71400000Y-91100000D03*
X74500000Y-67900000D03*
X112900000Y-73400000D03*
X92200000Y-65500000D03*
X60000000Y-67600000D03*
X53100000Y-83200000D03*
X94300000Y-69900000D03*
X64700000Y-67600000D03*
X53200000Y-103300000D03*
X91500000Y-68200000D03*
X71400000Y-95500000D03*
X79600000Y-64800000D03*
X90300000Y-68200000D03*
X72000000Y-103600000D03*
X80100000Y-67600000D03*
X96800000Y-69800000D03*
X53100000Y-95700000D03*
X64900000Y-64700000D03*
X100700000Y-70600000D03*
X71600000Y-109900000D03*
X84900000Y-64800000D03*
X99700000Y-71400000D03*
X49200000Y-65300000D03*
X52800000Y-115100000D03*
X84700000Y-67600000D03*
X71700000Y-115800000D03*
X99700000Y-72500000D03*
X49400000Y-69300000D03*
X53100000Y-108100000D03*
X49900000Y-67600000D03*
X118300000Y-96500000D03*
X124400000Y-96500000D03*
X125800000Y-92500000D03*
X113100000Y-92300000D03*
X117200000Y-89500000D03*
X113800000Y-91800000D03*
X125300000Y-99900000D03*
X123000000Y-99900000D03*
X115300000Y-88600000D03*
X113500000Y-88800000D03*
X123600000Y-95300000D03*
X115900000Y-95300000D03*
X122600000Y-94300000D03*
X113600000Y-94300000D03*
X104000000Y-65000000D03*
X110600000Y-67600000D03*
X104000000Y-66400000D03*
D17*
X116750000Y-97000000D02*
X116500000Y-97250000D01*
X116750000Y-94250000D02*
X116750000Y-97000000D01*
X116250000Y-93750000D02*
X116750000Y-94250000D01*
X116250000Y-87750000D02*
X116250000Y-93750000D01*
X116500000Y-87500000D02*
X116250000Y-87750000D01*
X107000000Y-83750000D02*
X107000000Y-89250000D01*
X110250000Y-83500000D02*
X110250000Y-93250000D01*
X110250000Y-93250000D02*
X110000000Y-93500000D01*
X91000000Y-134900000D02*
X91500000Y-134400000D01*
X91500000Y-134400000D02*
X100300000Y-134400000D01*
X100300000Y-134400000D02*
X103100000Y-131600000D01*
X103100000Y-131600000D02*
X103100000Y-111400000D01*
X103100000Y-111400000D02*
X102300000Y-110600000D01*
X102300000Y-110600000D02*
X102300000Y-105900000D01*
X102300000Y-105900000D02*
X100600000Y-104200000D01*
X100600000Y-104200000D02*
X100600000Y-90800000D01*
X100600000Y-90800000D02*
X101500000Y-89900000D01*
X101500000Y-89900000D02*
X101500000Y-84000000D01*
X101500000Y-84000000D02*
X100600000Y-83100000D01*
X100600000Y-83100000D02*
X100600000Y-81500000D01*
X100600000Y-81500000D02*
X98500000Y-79400000D01*
X98500000Y-79400000D02*
X92800000Y-79400000D01*
X92800000Y-79400000D02*
X90300000Y-81900000D01*
X90300000Y-81900000D02*
X90300000Y-82900000D01*
X99900000Y-105200000D02*
X99900000Y-81900000D01*
X91400000Y-83200000D02*
X90900000Y-82700000D01*
X90900000Y-82700000D02*
X90900000Y-82100000D01*
X90900000Y-82100000D02*
X92900000Y-80100000D01*
X92900000Y-80100000D02*
X98100000Y-80100000D01*
X98100000Y-80100000D02*
X99900000Y-81900000D01*
X99900000Y-105200000D02*
X101700000Y-107000000D01*
X101700000Y-107000000D02*
X101700000Y-130600000D01*
X101700000Y-130600000D02*
X98800000Y-133500000D01*
X99300000Y-82300000D02*
X99300000Y-86400000D01*
X99600000Y-118900000D02*
X97500000Y-121000000D01*
X101100000Y-108000000D02*
X101100000Y-110600000D01*
X101100000Y-110600000D02*
X99600000Y-112100000D01*
X99600000Y-112100000D02*
X99600000Y-118900000D01*
X99300000Y-106200000D02*
X100800000Y-107700000D01*
X97800000Y-80800000D02*
X99300000Y-82300000D01*
X93200000Y-80800000D02*
X97800000Y-80800000D01*
X91600000Y-82400000D02*
X93200000Y-80800000D01*
X100800000Y-107700000D02*
X101100000Y-108000000D01*
X98800000Y-105700000D02*
X99300000Y-106200000D01*
X98800000Y-88500000D02*
X98800000Y-105700000D01*
X99400000Y-87900000D02*
X98800000Y-88500000D01*
X99400000Y-86500000D02*
X99400000Y-87900000D01*
X99300000Y-86400000D02*
X99400000Y-86500000D01*
X98700000Y-82700000D02*
X98700000Y-86600000D01*
X98200000Y-95600000D02*
X96400000Y-97400000D01*
X96400000Y-97400000D02*
X96400000Y-99400000D01*
X96400000Y-99400000D02*
X89300000Y-106500000D01*
X89300000Y-106500000D02*
X81500000Y-106500000D01*
X81500000Y-106500000D02*
X79700000Y-108300000D01*
X79700000Y-108300000D02*
X79700000Y-111900000D01*
X79700000Y-111900000D02*
X88900000Y-121100000D01*
X88900000Y-121100000D02*
X90500000Y-121100000D01*
X98700000Y-86600000D02*
X98900000Y-86800000D01*
X98900000Y-86800000D02*
X98900000Y-87600000D01*
X98900000Y-87600000D02*
X98200000Y-88300000D01*
X98200000Y-88300000D02*
X98200000Y-95600000D01*
X97400000Y-81400000D02*
X98700000Y-82700000D01*
X95200000Y-81400000D02*
X97400000Y-81400000D01*
X94300000Y-82300000D02*
X95200000Y-81400000D01*
X96600000Y-83100000D02*
X96600000Y-83342500D01*
X74500000Y-134700000D02*
X75400000Y-133800000D01*
X75400000Y-133800000D02*
X75400000Y-119800000D01*
X75400000Y-119800000D02*
X76900000Y-118300000D01*
X76900000Y-118300000D02*
X76900000Y-117500000D01*
X76900000Y-117500000D02*
X74500000Y-115100000D01*
X74500000Y-115100000D02*
X74500000Y-109300000D01*
X74500000Y-109300000D02*
X78600000Y-105200000D01*
X78600000Y-105200000D02*
X88000000Y-105200000D01*
X88000000Y-105200000D02*
X94600000Y-98600000D01*
X94600000Y-98600000D02*
X94600000Y-96600000D01*
X94600000Y-96600000D02*
X97100000Y-94100000D01*
X96600000Y-83342500D02*
X96400000Y-83542500D01*
X96400000Y-83542500D02*
X96400000Y-92400000D01*
X96400000Y-92400000D02*
X97100000Y-93100000D01*
X97100000Y-93100000D02*
X97100000Y-94100000D01*
X95700000Y-82200000D02*
X96600000Y-83100000D01*
X97500000Y-83000000D02*
X97500000Y-83400000D01*
X97600000Y-92900000D02*
X97600000Y-94800000D01*
X96850002Y-92150002D02*
X97600000Y-92900000D01*
X96850002Y-84049998D02*
X96850002Y-92150002D01*
X97500000Y-83400000D02*
X96850002Y-84049998D01*
X95500000Y-96900000D02*
X97600000Y-94800000D01*
X95500000Y-99000000D02*
X95500000Y-96900000D01*
X88700000Y-105800000D02*
X95500000Y-99000000D01*
X79000000Y-105800000D02*
X88700000Y-105800000D01*
X76600000Y-108200000D02*
X79000000Y-105800000D01*
X76600000Y-111800000D02*
X76600000Y-108200000D01*
X75800000Y-112600000D02*
X76600000Y-111800000D01*
X75800000Y-114800000D02*
X75800000Y-112600000D01*
X81900000Y-120900000D02*
X75800000Y-114800000D01*
X81900000Y-133500000D02*
X81900000Y-120900000D01*
X58400000Y-62900000D02*
X58600000Y-63100000D01*
X58600000Y-63100000D02*
X92100000Y-63100000D01*
X92100000Y-63100000D02*
X96600000Y-67600000D01*
X96600000Y-67600000D02*
X105800000Y-67600000D01*
X90800000Y-71400000D02*
X83400000Y-71400000D01*
X91600000Y-70600000D02*
X90800000Y-71400000D01*
X97200000Y-70600000D02*
X91600000Y-70600000D01*
X98000000Y-69800000D02*
X97200000Y-70600000D01*
X104000000Y-69800000D02*
X98000000Y-69800000D01*
X106500000Y-72300000D02*
X104000000Y-69800000D01*
X99500000Y-73700000D02*
X106500000Y-73700000D01*
X97700000Y-71900000D02*
X99500000Y-73700000D01*
X92600000Y-71900000D02*
X97700000Y-71900000D01*
X92100000Y-71400000D02*
X92600000Y-71900000D01*
X72200000Y-83400000D02*
X72200000Y-71900000D01*
X72200000Y-71900000D02*
X73600000Y-70500000D01*
X73600000Y-70500000D02*
X73600000Y-65500000D01*
X73600000Y-65500000D02*
X74400000Y-64700000D01*
X109000000Y-68500000D02*
X112800000Y-72300000D01*
X96200000Y-68500000D02*
X109000000Y-68500000D01*
X93200000Y-65500000D02*
X96200000Y-68500000D01*
X52400000Y-90100000D02*
X53100000Y-90800000D01*
X52400000Y-70700000D02*
X52400000Y-90100000D01*
X56100000Y-67000000D02*
X52400000Y-70700000D01*
X57700000Y-67000000D02*
X56100000Y-67000000D01*
X60000000Y-64700000D02*
X57700000Y-67000000D01*
X84200000Y-66800000D02*
X84900000Y-66100000D01*
X84900000Y-66100000D02*
X89000000Y-66100000D01*
X89000000Y-66100000D02*
X90400000Y-64700000D01*
X72900000Y-89600000D02*
X71400000Y-91100000D01*
X72900000Y-72200000D02*
X72900000Y-89600000D01*
X74400000Y-70700000D02*
X72900000Y-72200000D01*
X74400000Y-68000000D02*
X74400000Y-70700000D01*
X74500000Y-67900000D02*
X74400000Y-68000000D01*
X108600000Y-69100000D02*
X112900000Y-73400000D01*
X95800000Y-69100000D02*
X108600000Y-69100000D01*
X92200000Y-65500000D02*
X95800000Y-69100000D01*
X56400000Y-67600000D02*
X60000000Y-67600000D01*
X53100000Y-70900000D02*
X56400000Y-67600000D01*
X53100000Y-74800000D02*
X53100000Y-70900000D01*
X53100000Y-83200000D02*
X53100000Y-74800000D01*
X63300000Y-69000000D02*
X64700000Y-67600000D01*
X57000000Y-69000000D02*
X63300000Y-69000000D01*
X54600000Y-71400000D02*
X57000000Y-69000000D01*
X54600000Y-101900000D02*
X54600000Y-71400000D01*
X53200000Y-103300000D02*
X54600000Y-101900000D01*
X71400000Y-95500000D02*
X73400000Y-93500000D01*
X73400000Y-93500000D02*
X73400000Y-72700000D01*
X73400000Y-72700000D02*
X79600000Y-66500000D01*
X79600000Y-66500000D02*
X79600000Y-64800000D01*
X73900000Y-101700000D02*
X72000000Y-103600000D01*
X73900000Y-73800000D02*
X73900000Y-101700000D01*
X80100000Y-67600000D02*
X73900000Y-73800000D01*
X53800000Y-95000000D02*
X53100000Y-95700000D01*
X53800000Y-71200000D02*
X53800000Y-95000000D01*
X56700000Y-68300000D02*
X53800000Y-71200000D01*
X60400000Y-68300000D02*
X56700000Y-68300000D01*
X60900000Y-67800000D02*
X60400000Y-68300000D01*
X60900000Y-67800000D02*
X60900000Y-67800000D01*
X64000000Y-64700000D02*
X60900000Y-67800000D01*
X64900000Y-64700000D02*
X64000000Y-64700000D01*
X76900000Y-104600000D02*
X71600000Y-109900000D01*
X76900000Y-74600000D02*
X76900000Y-104600000D01*
X76600000Y-74300000D02*
X76900000Y-74600000D01*
X76600000Y-72200000D02*
X76600000Y-74300000D01*
X78600000Y-70200000D02*
X76600000Y-72200000D01*
X79500000Y-70200000D02*
X78600000Y-70200000D01*
X84900000Y-64800000D02*
X79500000Y-70200000D01*
X49200000Y-67900000D02*
X49200000Y-65300000D01*
X51200000Y-69900000D02*
X49200000Y-67900000D01*
X51200000Y-113500000D02*
X51200000Y-69900000D01*
X52800000Y-115100000D02*
X51200000Y-113500000D01*
X84400000Y-67600000D02*
X84700000Y-67600000D01*
X77600000Y-74400000D02*
X84400000Y-67600000D01*
X77600000Y-104900000D02*
X77600000Y-74400000D01*
X73400000Y-109100000D02*
X77600000Y-104900000D01*
X73400000Y-114100000D02*
X73400000Y-109100000D01*
X71700000Y-115800000D02*
X73400000Y-114100000D01*
X51800000Y-106800000D02*
X53100000Y-108100000D01*
X51800000Y-69500000D02*
X51800000Y-106800000D01*
X49900000Y-67600000D02*
X51800000Y-69500000D01*
M02*
