G04 #@! TF.FileFunction,Soldermask,Bot*
%FSLAX46Y46*%
G04 Gerber Fmt 4.6, Leading zero omitted, Abs format (unit mm)*
G04 Created by KiCad (PCBNEW 4.0.1-3.201512150931+6195~38~ubuntu15.04.1-stable) date Sun 01 May 2016 04:30:14 AM CDT*
%MOMM*%
G01*
G04 APERTURE LIST*
%ADD10C,0.100000*%
%ADD11R,1.727200X1.727200*%
%ADD12O,1.727200X1.727200*%
%ADD13R,1.727200X2.032000*%
%ADD14O,1.727200X2.032000*%
%ADD15C,2.500000*%
%ADD16C,6.350000*%
G04 APERTURE END LIST*
D10*
D11*
X40462200Y-140500100D03*
D12*
X37922200Y-140500100D03*
X40462200Y-137960100D03*
X37922200Y-137960100D03*
X40462200Y-135420100D03*
X37922200Y-135420100D03*
X40462200Y-132880100D03*
X37922200Y-132880100D03*
X40462200Y-130340100D03*
X37922200Y-130340100D03*
X40462200Y-127800100D03*
X37922200Y-127800100D03*
X40462200Y-125260100D03*
X37922200Y-125260100D03*
X40462200Y-122720100D03*
X37922200Y-122720100D03*
X40462200Y-120180100D03*
X37922200Y-120180100D03*
X40462200Y-117640100D03*
X37922200Y-117640100D03*
X40462200Y-115100100D03*
X37922200Y-115100100D03*
X40462200Y-112560100D03*
X37922200Y-112560100D03*
X40462200Y-110020100D03*
X37922200Y-110020100D03*
X40462200Y-107480100D03*
X37922200Y-107480100D03*
X40462200Y-104940100D03*
X37922200Y-104940100D03*
X40462200Y-102400100D03*
X37922200Y-102400100D03*
X40462200Y-99860100D03*
X37922200Y-99860100D03*
X40462200Y-97320100D03*
X37922200Y-97320100D03*
X40462200Y-94780100D03*
X37922200Y-94780100D03*
X40462200Y-92240100D03*
X37922200Y-92240100D03*
X40462200Y-89700100D03*
X37922200Y-89700100D03*
X40462200Y-87160100D03*
X37922200Y-87160100D03*
X40462200Y-84620100D03*
X37922200Y-84620100D03*
X40462200Y-82080100D03*
X37922200Y-82080100D03*
X40462200Y-79540100D03*
X37922200Y-79540100D03*
X40462200Y-77000100D03*
X37922200Y-77000100D03*
X40462200Y-74460100D03*
X37922200Y-74460100D03*
X40462200Y-71920100D03*
X37922200Y-71920100D03*
X40462200Y-69380100D03*
X37922200Y-69380100D03*
X40462200Y-66840100D03*
X37922200Y-66840100D03*
D11*
X133030000Y-73977500D03*
D12*
X135570000Y-73977500D03*
X133030000Y-76517500D03*
X135570000Y-76517500D03*
X133030000Y-79057500D03*
X135570000Y-79057500D03*
D11*
X121920000Y-60960000D03*
D12*
X124460000Y-60960000D03*
X121920000Y-63500000D03*
X124460000Y-63500000D03*
X121920000Y-66040000D03*
X124460000Y-66040000D03*
X121920000Y-68580000D03*
X124460000Y-68580000D03*
X121920000Y-71120000D03*
X124460000Y-71120000D03*
X121920000Y-73660000D03*
X124460000Y-73660000D03*
X121920000Y-76200000D03*
X124460000Y-76200000D03*
X121920000Y-78740000D03*
X124460000Y-78740000D03*
X121920000Y-81280000D03*
X124460000Y-81280000D03*
X121920000Y-83820000D03*
X124460000Y-83820000D03*
X121920000Y-86360000D03*
X124460000Y-86360000D03*
X121920000Y-88900000D03*
X124460000Y-88900000D03*
X121920000Y-91440000D03*
X124460000Y-91440000D03*
X121920000Y-93980000D03*
X124460000Y-93980000D03*
X121920000Y-96520000D03*
X124460000Y-96520000D03*
X121920000Y-99060000D03*
X124460000Y-99060000D03*
X121920000Y-101600000D03*
X124460000Y-101600000D03*
X121920000Y-104140000D03*
X124460000Y-104140000D03*
D13*
X46736000Y-60960000D03*
D14*
X49276000Y-60960000D03*
X51816000Y-60960000D03*
X54356000Y-60960000D03*
X56896000Y-60960000D03*
X59436000Y-60960000D03*
X61976000Y-60960000D03*
X64516000Y-60960000D03*
X67056000Y-60960000D03*
X69596000Y-60960000D03*
D13*
X73660000Y-60960000D03*
D14*
X76200000Y-60960000D03*
X78740000Y-60960000D03*
X81280000Y-60960000D03*
X83820000Y-60960000D03*
X86360000Y-60960000D03*
X88900000Y-60960000D03*
X91440000Y-60960000D03*
D13*
X96520000Y-60960000D03*
D14*
X99060000Y-60960000D03*
X101600000Y-60960000D03*
X104140000Y-60960000D03*
X106680000Y-60960000D03*
X109220000Y-60960000D03*
X111760000Y-60960000D03*
X114300000Y-60960000D03*
D15*
X33835000Y-143510000D03*
X33835000Y-148590000D03*
X28395000Y-148590000D03*
X28395000Y-143510000D03*
X33835000Y-57150000D03*
X33835000Y-62230000D03*
X28395000Y-62230000D03*
X28395000Y-57150000D03*
D16*
X93980000Y-76200000D03*
X93980000Y-104140000D03*
X124460000Y-109220000D03*
M02*
