M48
;DRILL file {KiCad 4.0.1-3.201512150931+6195~38~ubuntu15.04.1-stable} date Sun 01 May 2016 04:30:21 AM CDT
;FORMAT={-:-/ absolute / inch / decimal}
FMAT,2
INCH,TZ
T1C0.016
T2C0.024
T3C0.040
T4C0.055
T5C0.067
T6C0.126
%
G90
G05
M72
T1
X1.66Y-4.675
X1.665Y-3.295
X1.68Y-3.54
X1.68Y-3.645
X1.685Y-4.44
X1.685Y-4.545
X1.69Y-3.415
X1.695Y-3.74
X1.695Y-4.345
X1.75Y-3.84
X1.815Y-3.295
X1.82Y-3.14
X1.85Y-2.83
X1.85Y-3.5
X1.855Y-4.845
X1.865Y-3.96
X1.89Y-3.575
X1.91Y-3.39
X1.915Y-3.21
X1.915Y-4.765
X1.935Y-4.4
X1.96Y-3.63
X1.965Y-4.695
X1.985Y-3.725
X1.9875Y-4.125
X1.99Y-2.975
X1.995Y-4.315
X1.9975Y-3.1
X2.Y-3.89
X2.0125Y-4.25
X2.015Y-2.82
X2.0475Y-4.01
X2.05Y-2.685
X2.05Y-3.085
X2.05Y-3.275
X2.05Y-4.2675
X2.0525Y-3.845
X2.0575Y-4.435
X2.115Y-4.63
X2.12Y-3.39
X2.1475Y-4.87
X2.1475Y-4.965
X2.1475Y-5.055
X2.1475Y-5.145
X2.1475Y-5.235
X2.1475Y-5.33
X2.155Y-3.725
X2.16Y-4.515
X2.17Y-4.2025
X2.1725Y-3.0425
X2.2Y-2.66
X2.2025Y-3.2475
X2.2075Y-3.835
X2.235Y-5.52
X2.255Y-3.935
X2.2575Y-4.315
X2.26Y-2.8125
X2.27Y-3.27
X2.2725Y-4.45
X2.28Y-4.0975
X2.2825Y-3.3
X2.285Y-2.94
X2.285Y-3.4175
X2.31Y-3.76
X2.31Y-5.1125
X2.315Y-4.935
X2.3175Y-5.0225
X2.3175Y-5.205
X2.3175Y-5.3
X2.3175Y-5.4275
X2.345Y-4.135
X2.345Y-4.55
X2.3575Y-4.6975
X2.365Y-3.02
X2.365Y-3.675
X2.3725Y-3.55
X2.375Y-4.88
X2.39Y-3.2375
X2.39Y-3.815
X2.39Y-4.4675
X2.3925Y-4.82
X2.415Y-3.1325
X2.43Y-4.975
X2.4325Y-4.005
X2.4325Y-4.2825
X2.4375Y-4.455
X2.445Y-3.2375
X2.445Y-3.8925
X2.465Y-2.92
X2.465Y-4.21
X2.47Y-4.09
X2.475Y-3.18
X2.485Y-4.275
X2.535Y-3.625
X2.535Y-4.7775
X2.54Y-3.97
X2.565Y-3.245
X2.565Y-4.14
X2.57Y-4.41
X2.57Y-5.02
X2.5725Y-3.875
X2.575Y-5.065
X2.5825Y-4.67
X2.585Y-4.04
X2.5875Y-3.52
X2.62Y-3.36
X2.625Y-3.75
X2.625Y-4.8975
X2.675Y-3.105
X2.6775Y-2.635
X2.6775Y-2.905
X2.69Y-3.18
X2.705Y-4.005
X2.72Y-4.375
X2.745Y-3.08
X2.765Y-2.865
X2.7825Y-3.2875
X2.79Y-3.86
X2.795Y-4.14
X2.795Y-4.885
X2.795Y-5.065
X2.7975Y-5.01
X2.8Y-3.715
X2.8Y-4.75
X2.8025Y-4.42
X2.805Y-4.555
X2.855Y-3.6
X2.865Y-3.875
X2.865Y-4.485
X2.87Y-4.66
X2.885Y-5.085
X2.9225Y-3.39
X2.9325Y-3.9
X2.9325Y-4.365
X2.94Y-4.89
X2.94Y-5.0075
X2.95Y-2.97
X2.955Y-4.14
X2.9675Y-3.175
X2.975Y-3.595
X2.9875Y-3.755
X3.005Y-3.305
X3.005Y-4.29
X3.02Y-3.845
X3.025Y-4.485
X3.03Y-4.4
X3.04Y-4.07
X3.0525Y-4.62
X3.0525Y-4.71
X3.055Y-2.87
X3.09Y-4.58
X3.095Y-4.725
X3.1Y-4.85
X3.105Y-4.19
X3.115Y-3.745
X3.1175Y-3.59
X3.14Y-3.05
X3.145Y-3.18
X3.1525Y-3.3925
X3.155Y-3.955
X3.1925Y-4.48
X3.195Y-4.3
X3.2Y-4.915
X3.215Y-3.105
X3.215Y-4.08
X3.235Y-3.875
X3.245Y-4.57
X3.275Y-4.72
X3.285Y-3.07
X3.29Y-4.205
X3.29Y-4.355
X3.295Y-4.
X3.34Y-4.77
X3.345Y-4.47
X3.395Y-4.55
X3.4425Y-5.895
X3.4475Y-2.7825
X3.4475Y-3.075
X3.475Y-4.08
X3.475Y-4.365
X3.475Y-4.56
X3.4775Y-3.845
X3.48Y-3.72
X3.4925Y-3.3775
X3.505Y-3.5325
X3.5065Y-3.4613
X3.5065Y-3.606
X3.545Y-5.8575
X3.5575Y-4.865
X3.5625Y-4.3625
X3.5775Y-3.605
X3.5775Y-4.545
X3.5788Y-3.389
X3.5788Y-3.5337
X3.58Y-3.46
X3.585Y-3.17
X3.585Y-3.2075
X3.59Y-3.9775
X3.5925Y-3.845
X3.5975Y-5.475
X3.5975Y-5.73
X3.6025Y-4.52
X3.61Y-3.2275
X3.62Y-3.72
X3.635Y-4.725
X3.635Y-5.2275
X3.6475Y-4.435
X3.65Y-3.5325
X3.6512Y-3.4613
X3.6512Y-3.606
X3.6525Y-3.39
X3.655Y-3.275
X3.6775Y-4.2775
X3.7025Y-2.7425
X3.72Y-4.6375
X3.73Y-3.2125
X3.73Y-4.15
X3.7325Y-3.1425
X3.745Y-3.1725
X3.7875Y-4.665
X3.7975Y-3.6825
X3.825Y-4.375
X3.8325Y-4.7825
X3.835Y-3.52
X3.8675Y-2.91
X3.89Y-4.195
X3.9125Y-3.4275
X3.9225Y-4.2125
X3.96Y-4.125
X3.9625Y-3.52
X3.97Y-4.28
X3.9725Y-4.2225
X3.985Y-4.15
X4.0075Y-3.1525
X4.0075Y-3.69
X4.015Y-4.18
X4.0325Y-5.335
X4.035Y-4.73
X4.0375Y-3.73
X4.0475Y-3.5325
X4.0525Y-3.805
X4.0825Y-5.0825
X4.0875Y-4.9725
X4.125Y-4.375
X4.1325Y-2.645
X4.15Y-3.5325
X4.225Y-3.565
X4.25Y-3.5925
X4.255Y-2.955
X4.255Y-5.065
X4.27Y-3.1225
X4.2925Y-4.2775
X4.335Y-3.91
X4.36Y-2.5825
X4.405Y-3.9775
X4.485Y-4.815
X4.4875Y-4.2175
X4.5225Y-4.4625
X4.545Y-4.6925
X4.57Y-2.795
X4.57Y-3.095
X4.72Y-3.34
X4.735Y-4.875
X4.7925Y-5.275
X4.7975Y-4.5875
X4.94Y-4.595
X4.96Y-5.105
X5.065Y-3.575
X5.065Y-3.855
X5.065Y-4.16
X5.07Y-4.08
X5.13Y-3.16
X5.19Y-4.2725
X5.2Y-3.325
T2
X1.76Y-5.3545
X1.78Y-5.65
X2.72Y-5.4573
X2.84Y-5.68
X4.46Y-2.25
X4.8325Y-4.465
X5.6Y-3.705
T3
X1.493Y-2.6315
X1.493Y-2.7315
X1.493Y-2.8315
X1.493Y-2.9315
X1.493Y-3.0315
X1.493Y-3.1315
X1.493Y-3.2315
X1.493Y-3.3315
X1.493Y-3.4315
X1.493Y-3.5315
X1.493Y-3.6315
X1.493Y-3.7315
X1.493Y-3.8315
X1.493Y-3.9315
X1.493Y-4.0315
X1.493Y-4.1315
X1.493Y-4.2315
X1.493Y-4.3315
X1.493Y-4.4315
X1.493Y-4.5315
X1.493Y-4.6315
X1.493Y-4.7315
X1.493Y-4.8315
X1.493Y-4.9315
X1.493Y-5.0315
X1.493Y-5.1315
X1.493Y-5.2315
X1.493Y-5.3315
X1.493Y-5.4315
X1.493Y-5.5315
X1.593Y-2.6315
X1.593Y-2.7315
X1.593Y-2.8315
X1.593Y-2.9315
X1.593Y-3.0315
X1.593Y-3.1315
X1.593Y-3.2315
X1.593Y-3.3315
X1.593Y-3.4315
X1.593Y-3.5315
X1.593Y-3.6315
X1.593Y-3.7315
X1.593Y-3.8315
X1.593Y-3.9315
X1.593Y-4.0315
X1.593Y-4.1315
X1.593Y-4.2315
X1.593Y-4.3315
X1.593Y-4.4315
X1.593Y-4.5315
X1.593Y-4.6315
X1.593Y-4.7315
X1.593Y-4.8315
X1.593Y-4.9315
X1.593Y-5.0315
X1.593Y-5.1315
X1.593Y-5.2315
X1.593Y-5.3315
X1.593Y-5.4315
X1.593Y-5.5315
X1.84Y-2.4
X1.94Y-2.4
X2.04Y-2.4
X2.14Y-2.4
X2.24Y-2.4
X2.34Y-2.4
X2.44Y-2.4
X2.54Y-2.4
X2.64Y-2.4
X2.74Y-2.4
X2.9Y-2.4
X3.Y-2.4
X3.1Y-2.4
X3.2Y-2.4
X3.3Y-2.4
X3.4Y-2.4
X3.5Y-2.4
X3.6Y-2.4
X3.8Y-2.4
X3.9Y-2.4
X4.Y-2.4
X4.1Y-2.4
X4.2Y-2.4
X4.3Y-2.4
X4.4Y-2.4
X4.5Y-2.4
X4.8Y-2.4
X4.8Y-2.5
X4.8Y-2.6
X4.8Y-2.7
X4.8Y-2.8
X4.8Y-2.9
X4.8Y-3.
X4.8Y-3.1
X4.8Y-3.2
X4.8Y-3.3
X4.8Y-3.4
X4.8Y-3.5
X4.8Y-3.6
X4.8Y-3.7
X4.8Y-3.8
X4.8Y-3.9
X4.8Y-4.
X4.8Y-4.1
X4.9Y-2.4
X4.9Y-2.5
X4.9Y-2.6
X4.9Y-2.7
X4.9Y-2.8
X4.9Y-2.9
X4.9Y-3.
X4.9Y-3.1
X4.9Y-3.2
X4.9Y-3.3
X4.9Y-3.4
X4.9Y-3.5
X4.9Y-3.6
X4.9Y-3.7
X4.9Y-3.8
X4.9Y-3.9
X4.9Y-4.
X4.9Y-4.1
X5.2374Y-2.9125
X5.2374Y-3.0125
X5.2374Y-3.1125
X5.3374Y-2.9125
X5.3374Y-3.0125
X5.3374Y-3.1125
T4
X4.3375Y-4.0075
X4.405Y-4.075
X4.4325Y-3.615
X4.46Y-3.45
X4.4625Y-3.8275
X4.485Y-3.7
X4.5025Y-3.5325
X4.5375Y-4.0725
X4.6275Y-3.5325
X4.6425Y-3.7
X4.6625Y-3.45
X4.665Y-3.615
X4.685Y-3.825
X4.71Y-4.0325
T5
X1.1179Y-2.25
X1.1179Y-2.45
X1.1179Y-5.65
X1.1179Y-5.85
X1.3321Y-2.25
X1.3321Y-2.45
X1.3321Y-5.65
X1.3321Y-5.85
T6
X3.7Y-3.
X3.7Y-4.1
X4.9Y-4.3
T0
M30
