G04 #@! TF.FileFunction,Soldermask,Bot*
%FSLAX46Y46*%
G04 Gerber Fmt 4.6, Leading zero omitted, Abs format (unit mm)*
G04 Created by KiCad (PCBNEW 4.0.6-e0-6349~53~ubuntu16.04.1) date Sun Mar 26 23:02:30 2017*
%MOMM*%
%LPD*%
G01*
G04 APERTURE LIST*
%ADD10C,0.100000*%
%ADD11C,1.670000*%
%ADD12R,1.727200X1.727200*%
%ADD13O,1.727200X1.727200*%
%ADD14R,0.900000X1.200000*%
%ADD15C,2.500000*%
G04 APERTURE END LIST*
D10*
D11*
X160020000Y-119380000D03*
X157480000Y-119380000D03*
X157480000Y-116840000D03*
X160020000Y-116840000D03*
X160020000Y-114300000D03*
X157480000Y-114300000D03*
X147320000Y-60960000D03*
X149860000Y-60960000D03*
X149860000Y-63500000D03*
X147320000Y-63500000D03*
X147320000Y-83820000D03*
X149860000Y-83820000D03*
X149860000Y-81280000D03*
X147320000Y-81280000D03*
X147320000Y-76200000D03*
X149860000Y-76200000D03*
X149860000Y-78740000D03*
X147320000Y-78740000D03*
X147320000Y-68580000D03*
X149860000Y-68580000D03*
X149860000Y-66040000D03*
X147320000Y-66040000D03*
X147320000Y-71120000D03*
X149860000Y-71120000D03*
X149860000Y-73660000D03*
X147320000Y-73660000D03*
X147320000Y-93980000D03*
X149860000Y-93980000D03*
X149860000Y-91440000D03*
X147320000Y-91440000D03*
X147320000Y-86360000D03*
X149860000Y-86360000D03*
X149860000Y-88900000D03*
X147320000Y-88900000D03*
X147320000Y-99060000D03*
X149860000Y-99060000D03*
X149860000Y-96520000D03*
X147320000Y-96520000D03*
X147320000Y-101600000D03*
X149860000Y-101600000D03*
X149860000Y-104140000D03*
X147320000Y-104140000D03*
X127000000Y-109220000D03*
X129540000Y-109220000D03*
X134620000Y-109220000D03*
X132080000Y-109220000D03*
X142240000Y-109220000D03*
X144780000Y-109220000D03*
X139700000Y-109220000D03*
X137160000Y-109220000D03*
X114300000Y-109220000D03*
X116840000Y-109220000D03*
X121920000Y-109220000D03*
X119380000Y-109220000D03*
X109220000Y-109220000D03*
X111760000Y-109220000D03*
X106680000Y-109220000D03*
X104140000Y-109220000D03*
X81280000Y-109220000D03*
X83820000Y-109220000D03*
X88900000Y-109220000D03*
X86360000Y-109220000D03*
X96520000Y-109220000D03*
X99060000Y-109220000D03*
X93980000Y-109220000D03*
X91440000Y-109220000D03*
X121920000Y-60960000D03*
X124460000Y-60960000D03*
X129540000Y-60960000D03*
X127000000Y-60960000D03*
X137160000Y-60960000D03*
X139700000Y-60960000D03*
X134620000Y-60960000D03*
X132080000Y-60960000D03*
X109220000Y-60960000D03*
X111760000Y-60960000D03*
X116840000Y-60960000D03*
X114300000Y-60960000D03*
X104140000Y-60960000D03*
X106680000Y-60960000D03*
X101600000Y-60960000D03*
X99060000Y-60960000D03*
X92456000Y-60960000D03*
X94996000Y-60960000D03*
X82296000Y-60960000D03*
X84836000Y-60960000D03*
X89916000Y-60960000D03*
X87376000Y-60960000D03*
X77216000Y-60960000D03*
X79756000Y-60960000D03*
X74676000Y-60960000D03*
X72136000Y-60960000D03*
D12*
X40462200Y-132880000D03*
D13*
X37922200Y-132880000D03*
X40462200Y-130340000D03*
X37922200Y-130340000D03*
X40462200Y-127800000D03*
X37922200Y-127800000D03*
X40462200Y-125260000D03*
X37922200Y-125260000D03*
X40462200Y-122720000D03*
X37922200Y-122720000D03*
X40462200Y-120180000D03*
X37922200Y-120180000D03*
X40462200Y-117640000D03*
X37922200Y-117640000D03*
X40462200Y-115100000D03*
X37922200Y-115100000D03*
X40462200Y-112560000D03*
X37922200Y-112560000D03*
X40462200Y-110020000D03*
X37922200Y-110020000D03*
X40462200Y-107480000D03*
X37922200Y-107480000D03*
X40462200Y-104940000D03*
X37922200Y-104940000D03*
X40462200Y-102400000D03*
X37922200Y-102400000D03*
X40462200Y-99860000D03*
X37922200Y-99860000D03*
X40462200Y-97320000D03*
X37922200Y-97320000D03*
X40462200Y-94780000D03*
X37922200Y-94780000D03*
X40462200Y-92240000D03*
X37922200Y-92240000D03*
X40462200Y-89700000D03*
X37922200Y-89700000D03*
X40462200Y-87160000D03*
X37922200Y-87160000D03*
X40462200Y-84620000D03*
X37922200Y-84620000D03*
X40462200Y-82080000D03*
X37922200Y-82080000D03*
X40462200Y-79540000D03*
X37922200Y-79540000D03*
X40462200Y-77000000D03*
X37922200Y-77000000D03*
X40462200Y-74460000D03*
X37922200Y-74460000D03*
X40462200Y-71920000D03*
X37922200Y-71920000D03*
D14*
X105650000Y-94750000D03*
X105650000Y-96950000D03*
X108750000Y-94750000D03*
X108750000Y-96950000D03*
X105650000Y-88550000D03*
X105650000Y-90750000D03*
X108750000Y-88550000D03*
X108750000Y-90750000D03*
X105750000Y-82550000D03*
X105750000Y-84750000D03*
X108750000Y-82550000D03*
X108750000Y-84750000D03*
X116550000Y-98450000D03*
X116550000Y-100650000D03*
X119550000Y-98450000D03*
X119550000Y-100650000D03*
X119350000Y-87950000D03*
X119350000Y-90150000D03*
X122350000Y-87950000D03*
X122350000Y-90150000D03*
X114350000Y-82550000D03*
X114350000Y-84750000D03*
X117350000Y-82550000D03*
X117350000Y-84750000D03*
D15*
X33720000Y-60710000D03*
X33720000Y-65790000D03*
X28280000Y-65790000D03*
X28280000Y-60710000D03*
X33720000Y-138210000D03*
X33720000Y-143290000D03*
X28280000Y-143290000D03*
X28280000Y-138210000D03*
M02*
