M48
;DRILL file {KiCad 4.0.6-e0-6349~53~ubuntu16.04.1} date Sun Mar 26 23:02:36 2017
;FORMAT={-:-/ absolute / inch / decimal}
FMAT,2
INCH,TZ
T1C0.016
T2C0.024
T3C0.040
T4C0.067
%
G90
G05
M72
T1
X1.6201Y-3.8839
X1.6283Y-4.3843
X1.6484Y-4.2988
X1.6614Y-4.6575
X1.6665Y-4.2457
X1.6811Y-4.7717
X1.685Y-4.1181
X1.689Y-4.7205
X1.6929Y-5.2283
X1.6969Y-4.815
X1.7008Y-3.7756
X1.7031Y-4.2079
X1.7161Y-4.6476
X1.7165Y-4.5764
X1.7185Y-2.9232
X1.7234Y-4.4085
X1.7264Y-3.9016
X1.7283Y-3.4045
X1.7343Y-4.0965
X1.7559Y-3.9685
X1.7717Y-3.0413
X1.7772Y-4.3303
X1.7795Y-5.2835
X1.7823Y-4.4618
X1.815Y-3.5472
X1.8465Y-3.8543
X1.8553Y-2.9823
X1.8661Y-3.4961
X1.8701Y-4.0157
X1.937Y-2.5709
X1.9449Y-2.7283
X1.9646Y-2.6614
X2.0157Y-5.5118
X2.0787Y-4.5315
X2.0787Y-5.5669
X2.0906Y-3.2756
X2.0906Y-3.5748
X2.0906Y-3.7677
X2.0906Y-4.2559
X2.0945Y-4.0669
X2.1024Y-2.5433
X2.126Y-5.2992
X2.1575Y-2.6378
X2.1772Y-4.8583
X2.1772Y-4.937
X2.1772Y-5.1614
X2.1772Y-5.2402
X2.2047Y-5.315
X2.2441Y-5.5748
X2.2638Y-5.3071
X2.2677Y-4.7717
X2.2874Y-2.5472
X2.2992Y-2.4764
X2.3278Y-3.8868
X2.3327Y-3.3465
X2.3396Y-2.9331
X2.3396Y-3.4016
X2.3396Y-4.4094
X2.3425Y-2.815
X2.3425Y-2.8543
X2.3425Y-3.0118
X2.3425Y-3.5039
X2.3425Y-3.8386
X2.3425Y-3.9961
X2.3425Y-4.3307
X2.3425Y-4.4882
X2.3524Y-3.7362
X2.3524Y-4.065
X2.3553Y-3.5561
X2.3563Y-3.0591
X2.3563Y-4.5404
X2.3573Y-4.2717
X2.3612Y-3.2697
X2.3622Y-2.5472
X2.3622Y-2.6614
X2.3622Y-5.2835
X2.3976Y-4.7402
X2.3976Y-5.3504
X2.4616Y-3.435
X2.4695Y-3.9252
X2.4715Y-2.9331
X2.4744Y-4.4114
X2.4803Y-2.5354
X2.4921Y-2.6457
X2.5157Y-4.0079
X2.5169Y-4.4874
X2.5236Y-5.3228
X2.5295Y-2.9921
X2.5394Y-3.5748
X2.5472Y-2.6614
X2.5551Y-2.5472
X2.5669Y-4.0472
X2.5827Y-5.5748
X2.6051Y-4.5165
X2.6181Y-3.0413
X2.6181Y-3.5079
X2.6654Y-2.5472
X2.6693Y-5.3937
X2.7283Y-4.6772
X2.7559Y-4.1969
X2.7638Y-3.6378
X2.7638Y-4.0157
X2.7638Y-4.3937
X2.7717Y-4.6142
X2.7795Y-3.189
X2.7795Y-3.4724
X2.7795Y-4.7559
X2.811Y-3.5866
X2.811Y-3.7598
X2.8189Y-4.3268
X2.8189Y-5.5669
X2.8228Y-4.5591
X2.8346Y-4.0787
X2.8425Y-3.2835
X2.8465Y-4.8425
X2.8465Y-4.9213
X2.8465Y-5.1654
X2.8465Y-5.2441
X2.8504Y-5.3622
X2.8661Y-2.6614
X2.874Y-2.5472
X2.8937Y-4.7835
X2.9291Y-2.5472
X2.9331Y-2.6732
X2.9331Y-5.3031
X2.9882Y-4.6378
X3.0079Y-4.7244
X3.0394Y-5.2677
X3.063Y-2.6496
X3.0669Y-4.7362
X3.0669Y-5.3465
X3.0709Y-2.5472
X3.0886Y-2.9429
X3.0945Y-3.189
X3.0974Y-3.9272
X3.0984Y-2.8071
X3.0994Y-3.437
X3.1014Y-4.4094
X3.1161Y-4.2274
X3.1181Y-3.7421
X3.1201Y-3.1004
X3.122Y-3.5925
X3.122Y-4.0846
X3.125Y-4.5463
X3.1289Y-3.2923
X3.1339Y-2.5512
X3.1535Y-2.6614
X3.1654Y-5.5591
X3.189Y-4.6535
X3.2047Y-3.1024
X3.2047Y-3.2835
X3.2244Y-5.2559
X3.2362Y-2.8661
X3.2382Y-3.5236
X3.248Y-3.3465
X3.248Y-3.3858
X3.2756Y-2.5472
X3.2756Y-2.6614
X3.2776Y-3.5335
X3.2835Y-2.811
X3.2874Y-3.6417
X3.2874Y-3.6811
X3.315Y-2.6299
X3.3268Y-3.2677
X3.3268Y-3.3071
X3.3346Y-2.6614
X3.3386Y-4.685
X3.3425Y-2.5512
X3.3543Y-3.0157
X3.3622Y-3.1732
X3.4094Y-4.4646
X3.4094Y-5.5669
X3.4252Y-3.3071
X3.4252Y-3.8189
X3.4409Y-4.1142
X3.4409Y-5.3622
X3.4475Y-3.075
X3.4567Y-2.8504
X3.4646Y-2.6614
X3.4724Y-4.0827
X3.4803Y-2.5236
X3.4925Y-3.3775
X3.5Y-4.8543
X3.5Y-4.9331
X3.5Y-5.1614
X3.5Y-5.248
X3.505Y-3.5325
X3.5065Y-3.4613
X3.5065Y-3.606
X3.5315Y-3.9252
X3.5354Y-2.9449
X3.5551Y-2.685
X3.5551Y-3.2638
X3.5591Y-2.5472
X3.563Y-4.7677
X3.5709Y-3.8898
X3.5775Y-3.605
X3.5788Y-3.389
X3.5788Y-3.5337
X3.58Y-3.46
X3.5827Y-3.7559
X3.5827Y-5.311
X3.5827Y-5.4724
X3.5945Y-2.5906
X3.5945Y-3.7165
X3.5984Y-3.2756
X3.6024Y-2.685
X3.6063Y-3.2441
X3.626Y-2.811
X3.6299Y-2.5787
X3.6339Y-3.6969
X3.6417Y-3.7283
X3.65Y-3.5325
X3.6512Y-3.4613
X3.6512Y-3.606
X3.6535Y-4.4646
X3.6575Y-3.2717
X3.6614Y-3.3858
X3.6693Y-2.5787
X3.6693Y-3.7559
X3.6772Y-2.8661
X3.689Y-5.2087
X3.7087Y-4.7362
X3.7126Y-2.752
X3.7126Y-3.2402
X3.7126Y-5.3425
X3.7235Y-3.389
X3.7235Y-3.5337
X3.7402Y-2.9685
X3.7402Y-3.4646
X3.7402Y-3.622
X3.7677Y-3.2362
X3.7975Y-3.6825
X3.8031Y-4.6772
X3.8071Y-3.
X3.811Y-2.748
X3.8386Y-3.2677
X3.8386Y-3.4094
X3.8386Y-3.5157
X3.8386Y-4.7638
X3.8504Y-3.8268
X3.8563Y-3.3484
X3.8661Y-3.4331
X3.8898Y-5.2559
X3.9252Y-2.811
X3.9252Y-2.8543
X3.9606Y-2.5551
X3.9625Y-3.52
X3.9646Y-2.7795
X3.9764Y-5.622
X4.0315Y-3.2441
X4.0945Y-2.5591
X4.0945Y-2.6142
X4.1142Y-3.248
X4.1339Y-5.4252
X4.1378Y-2.6299
X4.1417Y-4.4803
X4.1654Y-2.6614
X4.1929Y-2.8465
X4.1929Y-2.9016
X4.2126Y-2.748
X4.2126Y-3.2972
X4.2126Y-3.5138
X4.2205Y-4.5748
X4.2441Y-3.0354
X4.2598Y-5.0236
X4.3307Y-3.6811
X4.3406Y-3.2874
X4.3465Y-2.5551
X4.3543Y-2.6614
X4.3799Y-3.2185
X4.4173Y-5.2756
X4.4331Y-2.752
X4.4409Y-2.8465
X4.4449Y-2.7992
X4.4449Y-2.8898
X4.4528Y-3.6339
X4.4685Y-3.4961
X4.4724Y-3.7126
X4.4803Y-3.6142
X4.4961Y-3.1575
X4.4961Y-5.6063
X4.5039Y-4.4646
X4.5394Y-3.4882
X4.5433Y-2.6496
X4.563Y-3.752
X4.5827Y-2.5394
X4.5866Y-2.9921
X4.5866Y-3.1496
X4.5866Y-3.4449
X4.5866Y-3.8287
X4.6142Y-3.5236
X4.6358Y-3.4449
X4.6575Y-3.7992
X4.6654Y-2.6181
X4.6772Y-4.5827
X4.7638Y-5.2835
X4.8268Y-3.7126
X4.8425Y-3.9331
X4.8661Y-3.752
X4.8976Y-3.7992
X4.9331Y-3.9331
X4.9528Y-3.6417
X4.9606Y-3.252
X4.9803Y-2.5
X4.9843Y-3.0945
X4.9843Y-5.5669
X5.0079Y-4.4803
X5.0787Y-5.0157
X5.2362Y-4.5984
X5.4173Y-5.315
X5.4252Y-4.4173
X5.4606Y-2.9134
X5.5512Y-3.0354
X5.685Y-4.5984
X5.7795Y-5.0157
T2
X1.8612Y-3.3976
X1.8652Y-3.8917
X1.866Y-2.906
X1.873Y-4.4222
X2.2057Y-2.9124
X2.2067Y-4.3839
X2.2352Y-3.8868
X2.2421Y-3.3927
X2.3819Y-4.878
X2.5906Y-4.378
X2.6122Y-2.9154
X2.6191Y-3.9104
X2.625Y-3.4193
X2.9734Y-2.9075
X2.9764Y-4.3868
X2.9803Y-3.3957
X2.9852Y-3.8937
X3.0512Y-4.874
X3.437Y-3.7559
X3.6969Y-4.874
X3.8228Y-3.9882
X3.9961Y-4.0709
X4.6634Y-2.4705
X5.0551Y-3.0984
X5.3268Y-2.6693
X5.4606Y-3.0984
X5.6811Y-4.0276
T3
X1.493Y-2.8315
X1.493Y-2.9315
X1.493Y-3.0315
X1.493Y-3.1315
X1.493Y-3.2315
X1.493Y-3.3315
X1.493Y-3.4315
X1.493Y-3.5315
X1.493Y-3.6315
X1.493Y-3.7315
X1.493Y-3.8315
X1.493Y-3.9315
X1.493Y-4.0315
X1.493Y-4.1315
X1.493Y-4.2315
X1.493Y-4.3315
X1.493Y-4.4315
X1.493Y-4.5315
X1.493Y-4.6315
X1.493Y-4.7315
X1.493Y-4.8315
X1.493Y-4.9315
X1.493Y-5.0315
X1.493Y-5.1315
X1.493Y-5.2315
X1.593Y-2.8315
X1.593Y-2.9315
X1.593Y-3.0315
X1.593Y-3.1315
X1.593Y-3.2315
X1.593Y-3.3315
X1.593Y-3.4315
X1.593Y-3.5315
X1.593Y-3.6315
X1.593Y-3.7315
X1.593Y-3.8315
X1.593Y-3.9315
X1.593Y-4.0315
X1.593Y-4.1315
X1.593Y-4.2315
X1.593Y-4.3315
X1.593Y-4.4315
X1.593Y-4.5315
X1.593Y-4.6315
X1.593Y-4.7315
X1.593Y-4.8315
X1.593Y-4.9315
X1.593Y-5.0315
X1.593Y-5.1315
X1.593Y-5.2315
X2.84Y-2.4
X2.94Y-2.4
X3.04Y-2.4
X3.14Y-2.4
X3.2Y-4.3
X3.24Y-2.4
X3.3Y-4.3
X3.34Y-2.4
X3.4Y-4.3
X3.44Y-2.4
X3.5Y-4.3
X3.54Y-2.4
X3.6Y-4.3
X3.64Y-2.4
X3.7Y-4.3
X3.74Y-2.4
X3.8Y-4.3
X3.9Y-2.4
X3.9Y-4.3
X4.Y-2.4
X4.1Y-2.4
X4.1Y-4.3
X4.2Y-2.4
X4.2Y-4.3
X4.3Y-2.4
X4.3Y-4.3
X4.4Y-2.4
X4.4Y-4.3
X4.5Y-2.4
X4.5Y-4.3
X4.6Y-2.4
X4.6Y-4.3
X4.7Y-4.3
X4.8Y-2.4
X4.8Y-4.3
X4.9Y-2.4
X5.Y-2.4
X5.Y-4.3
X5.1Y-2.4
X5.1Y-4.3
X5.2Y-2.4
X5.2Y-4.3
X5.3Y-2.4
X5.3Y-4.3
X5.4Y-2.4
X5.4Y-4.3
X5.5Y-2.4
X5.5Y-4.3
X5.6Y-4.3
X5.7Y-4.3
X5.8Y-2.4
X5.8Y-2.5
X5.8Y-2.6
X5.8Y-2.7
X5.8Y-2.8
X5.8Y-2.9
X5.8Y-3.
X5.8Y-3.1
X5.8Y-3.2
X5.8Y-3.3
X5.8Y-3.4
X5.8Y-3.5
X5.8Y-3.6
X5.8Y-3.7
X5.8Y-3.8
X5.8Y-3.9
X5.8Y-4.
X5.8Y-4.1
X5.9Y-2.4
X5.9Y-2.5
X5.9Y-2.6
X5.9Y-2.7
X5.9Y-2.8
X5.9Y-2.9
X5.9Y-3.
X5.9Y-3.1
X5.9Y-3.2
X5.9Y-3.3
X5.9Y-3.4
X5.9Y-3.5
X5.9Y-3.6
X5.9Y-3.7
X5.9Y-3.8
X5.9Y-3.9
X5.9Y-4.
X5.9Y-4.1
X6.2Y-4.5
X6.2Y-4.6
X6.2Y-4.7
X6.3Y-4.5
X6.3Y-4.6
X6.3Y-4.7
T4
X1.1134Y-2.3902
X1.1134Y-2.5902
X1.1134Y-5.4413
X1.1134Y-5.6413
X1.3276Y-2.3902
X1.3276Y-2.5902
X1.3276Y-5.4413
X1.3276Y-5.6413
T0
M30
